<svg width="501" height="501" viewBox="0 0 501 501" fill="none" xmlns="http://www.w3.org/2000/svg">
<g clip-path="url(#clip0_9_10643)">
<path fill-rule="evenodd" clip-rule="evenodd" d="M398.309 217.685C400.103 224.405 401.478 231.242 402.253 238.148C403.853 251.943 403.656 265.949 401.382 279.612C400.251 286.444 398.662 293.188 396.627 299.792C394.548 306.38 392.02 312.817 389.075 319.049C386.136 325.281 382.777 331.316 378.953 337.033C375.121 342.744 370.911 348.184 366.369 353.32C370.678 347.987 374.625 342.377 378.172 336.537C381.766 330.724 384.9 324.64 387.598 318.381C390.302 312.124 392.581 305.693 394.411 299.14C396.197 292.577 397.534 285.901 398.418 279.174C398.665 277.382 398.87 275.585 399.048 273.786C398.298 278.451 397.345 283.077 396.172 287.644C398.418 277.44 399.596 267.014 399.7 256.597C399.309 237.055 395.038 217.639 387.16 199.842C382.265 188.928 376.033 178.621 368.667 169.219C370.563 171.786 372.368 174.419 374.077 177.114C377.507 182.56 380.567 188.23 383.232 194.076C385.856 199.943 388.075 205.978 389.877 212.13C393.559 224.421 395.244 237.241 395.279 249.998C394.249 224.506 386.319 199.376 372.067 178.423C365.095 167.866 356.592 158.355 347.027 150.135C337.456 141.906 326.696 135.118 315.273 129.845C292.354 119.482 266.607 115.379 241.716 118.754C216.829 121.997 192.948 132.335 173.5 148.163C153.963 163.875 138.892 185.11 130.742 208.854C130.403 209.794 130.109 210.75 129.814 211.706C129.647 212.249 129.48 212.792 129.304 213.333C128.827 214.828 128.354 216.321 127.992 217.85L126.817 222.408L125.864 227.018L125.392 229.324L125.036 231.65L124.341 236.307C124.255 237.284 124.153 238.26 124.051 239.236C123.827 241.382 123.602 243.529 123.552 245.689C122.861 258.229 124.023 270.86 126.776 283.137C132.342 307.706 145.014 330.639 162.748 348.677C167.172 353.194 171.853 357.487 176.896 361.327C178.609 362.733 180.423 363.999 182.238 365.267C183.023 365.815 183.808 366.364 184.585 366.924C185.394 367.425 186.196 367.939 186.999 368.453C188.869 369.65 190.74 370.849 192.699 371.901C203.708 378.248 215.676 382.899 228.036 386.06C202.991 380.968 179.512 368.304 161.063 350.365C142.666 332.362 129.301 309.144 123.13 284.006C116.81 258.887 118.111 231.951 126.37 207.358C134.651 182.727 150.254 160.7 170.423 144.36C189.242 129.141 212.019 118.852 235.897 114.919C217.35 117.214 199.246 123.082 182.964 132.308C182.017 132.823 181.096 133.385 180.174 133.947C179.661 134.259 179.148 134.572 178.63 134.877C177.187 135.737 175.746 136.597 174.371 137.567L170.19 140.386L166.153 143.404L164.137 144.919L162.2 146.533L158.332 149.773C157.575 150.491 156.806 151.196 156.037 151.901C154.327 153.47 152.616 155.039 151.035 156.739C141.568 166.308 133.534 177.27 127.031 189.082C114.098 212.766 107.888 240.134 109.225 267.241C109.447 271.783 109.853 276.328 110.477 280.842C113.567 297.056 119.361 312.782 127.611 327.125C130.992 333.02 134.698 338.753 138.905 344.111C140.313 346.043 141.864 347.86 143.416 349.678C144.077 350.452 144.738 351.227 145.389 352.011C146.096 352.753 146.792 353.505 147.488 354.258C149.109 356.008 150.73 357.76 152.481 359.382C162.211 368.964 173.401 377.034 185.399 383.661C166.156 374.185 149.18 360.169 135.862 343.212C136.667 344.314 137.489 345.401 138.366 346.448C147.189 357.681 157.667 367.595 169.243 376.015C192.474 392.777 220.478 402.97 249.229 405.178C256.415 405.739 263.654 405.914 270.867 405.43C273.393 405.349 275.902 405.077 278.413 404.804C279.499 404.686 280.585 404.568 281.673 404.465C282.741 404.291 283.812 404.131 284.884 403.971C287.393 403.597 289.905 403.223 292.381 402.655C299.506 401.299 306.488 399.252 313.35 396.878L318.481 395.023C319.58 394.595 320.665 394.135 321.751 393.675C322.34 393.425 322.929 393.175 323.521 392.93L326.039 391.87L328.504 390.692L333.429 388.317C308.201 403.052 278.466 410.051 249.01 408.75C219.549 407.363 190.354 397.664 165.958 380.68C141.436 363.864 122.061 339.706 110.463 312.25C98.8626 284.74 95.5727 253.893 100.525 224.487C105.538 195.078 118.772 167.094 138.563 144.758C143.543 139.205 148.893 134.001 154.552 129.155C155.471 128.372 156.418 127.623 157.365 126.874C157.879 126.467 158.393 126.06 158.902 125.649L161.085 123.909L163.348 122.271L167.89 119.022L172.585 116.004C185.144 107.999 198.928 102.02 213.194 97.9107C220.344 95.9 227.63 94.4071 234.974 93.3936C242.321 92.3883 249.733 91.8432 257.138 91.95C271.938 92.1034 286.716 94.1798 300.857 98.401C307.924 100.513 314.838 103.099 321.541 106.134C328.222 109.216 334.684 112.749 340.869 116.697C347.057 120.638 352.979 124.994 358.502 129.799C364.016 134.614 369.19 139.791 373.998 145.278C368.917 140.041 363.504 135.148 357.795 130.653C352.125 126.109 346.109 122.011 339.853 118.354C333.602 114.691 327.11 111.454 320.437 108.676C313.742 105.945 306.875 103.669 299.895 101.866C272.001 94.4811 242.214 95.1248 214.811 103.406C187.462 111.829 162.438 127.739 143.789 149.346C137.823 156.178 132.49 163.546 127.828 171.32C127.915 171.186 127.999 171.049 128.083 170.913C128.187 170.744 128.291 170.576 128.4 170.411C143.683 147.089 165.854 128.454 191.225 116.962C216.61 105.485 245.192 101.124 272.823 104.77C279.723 105.718 286.552 107.137 293.263 108.98C294.34 109.28 295.407 109.618 296.474 109.956C297.066 110.143 297.658 110.33 298.251 110.511L300.741 111.292L303.193 112.188L308.085 114.004L312.879 116.058C325.647 121.589 337.494 129.136 348.145 138.033C358.718 147.029 368.106 157.413 375.795 168.94C378.742 173.364 381.462 177.936 383.941 182.634C386.755 187.594 389.302 192.706 391.551 197.941C394.26 204.362 396.504 210.969 398.309 217.685ZM334.661 202.998H178.027V163.84H295.503C316.785 163.84 334.111 180.837 334.65 201.981C334.661 202.326 334.661 202.654 334.661 202.996V202.998ZM197.607 340.054V222.581H236.765V300.896C236.765 322.518 219.231 340.054 197.607 340.054ZM275.923 340.054V222.581H315.081V300.896C315.081 322.518 297.547 340.054 275.923 340.054Z" fill="url(#paint0_linear_9_10643)"/>
<g style="mix-blend-mode:overlay">
<path fill-rule="evenodd" clip-rule="evenodd" d="M464.686 192.223C465.995 196.518 467.179 200.853 468.235 205.223C470.605 215.325 472.286 225.597 473.271 235.947C474.265 246.296 474.549 256.73 474.017 267.141C473.569 277.554 472.416 287.954 470.577 298.249C472.872 288.046 474.501 277.68 475.425 267.23C476.335 256.778 476.388 246.244 475.736 235.755C475.531 232.418 475.254 229.084 474.906 225.756C477.109 235.927 478.556 246.267 479.182 256.67C482.029 295.218 473.339 334.462 455.258 368.922C464.94 352.043 472.491 333.824 477.002 314.78C479.313 305.278 480.985 295.614 481.993 285.862C482.931 276.107 483.213 266.283 482.836 256.474C482.634 251.61 482.257 246.756 481.711 241.919C484.271 259.956 484.641 278.325 482.785 296.475C479.618 325.993 470.452 354.897 456.065 381.011C447.983 394.692 438.475 407.566 427.726 419.332C432.757 414.194 437.545 408.809 442.094 403.22C440.487 405.461 438.845 407.678 437.153 409.857C430.853 418.069 423.996 425.868 416.631 433.176C409.217 440.436 401.301 447.194 392.958 453.396C384.62 459.607 375.84 465.253 366.66 470.191C357.52 475.2 348.027 479.6 338.267 483.359C348.184 480.039 357.895 476.063 367.313 471.441C376.724 466.806 385.763 461.396 394.398 455.405C403.041 449.419 411.29 442.844 419.061 435.727C426.787 428.555 434.029 420.858 440.734 412.696C454.158 396.381 465.1 378.03 473.508 358.587C477.751 348.874 481.149 338.793 483.903 328.548C486.641 318.299 488.717 307.86 490.035 297.312C491.056 288.682 491.59 279.987 491.657 271.288C491.965 263.192 491.859 255.078 491.339 246.986C489.973 225.895 485.492 205.018 478.386 185.071C471.102 165.195 461.208 146.191 448.56 129.147L443.795 122.778L438.717 116.647L436.162 113.594L433.468 110.664C432.822 109.973 432.183 109.274 431.544 108.575C430.392 107.314 429.24 106.054 428.046 104.837C420.587 97.2832 412.648 90.2006 404.256 83.686C403.009 82.7284 401.752 81.7843 400.485 80.8538C397.09 77.8219 393.605 74.889 390.031 72.0646C383.178 66.721 376.016 61.7616 368.61 57.1988C361.843 52.7419 354.848 48.6306 347.656 44.8841C344.242 43.1076 340.78 41.4232 337.276 39.8305C376.543 50.6098 413.135 71.5729 442.232 100.497C450.078 108.202 457.413 116.446 464.174 125.16C470.87 133.918 476.977 143.146 482.441 152.752C487.917 162.354 492.737 172.355 496.762 182.683C500.874 192.974 504.293 203.565 507.011 214.359C504.845 203.445 501.959 192.659 498.347 182.093C494.717 171.534 490.215 161.264 485.047 151.338C479.887 141.406 474.046 131.81 467.571 122.644C461.031 113.522 453.87 104.833 446.145 96.6533C430.686 80.293 412.747 66.2792 393.314 54.789C383.614 49.0008 373.407 44.0677 362.935 39.7926C352.461 35.5304 341.697 31.9454 330.719 29.1487C312.918 24.7324 294.597 22.1787 276.218 21.896C259.185 19.4345 241.858 18.8289 224.698 20.4469L216.781 21.2244L208.907 22.3928L204.972 22.9975L201.07 23.7842C200.144 23.9786 199.215 24.1631 198.286 24.3476C196.612 24.6802 194.936 25.013 193.277 25.4039C182.952 27.8726 172.782 30.9954 162.863 34.8003C123.252 50.2359 88.2561 77.0719 62.7635 111.07C37.2993 145.077 21.3622 186.28 18.078 228.684C18.0535 228.985 18.0383 229.287 18.0231 229.588C18.0107 229.832 17.9984 230.077 17.9812 230.321C18.4987 216.503 20.2112 202.735 23.164 189.218C32.2083 146.632 53.96 106.975 84.3226 75.6158C114.863 44.4063 154.202 21.6527 196.912 11.0214C207.566 8.30045 218.418 6.29546 229.373 5.02505C240.333 3.833 251.39 3.38892 262.437 3.68951C273.487 3.97872 284.539 5.03459 295.458 6.94092C306.392 8.75315 317.222 11.3137 327.863 14.5792C317.405 10.7792 306.684 7.66274 295.774 5.27918C284.862 2.91631 273.745 1.44785 262.577 0.727506C251.409 -0.00215285 240.175 0.0243605 228.98 0.816072C217.79 1.68609 206.649 3.31162 195.651 5.68327C173.649 10.4343 152.37 18.5211 132.476 29.1942C122.501 34.4935 112.995 40.6702 103.914 47.4137C94.8432 54.1662 86.2017 61.5171 78.1237 69.4593C62.0761 85.4367 48.0479 103.56 37.1443 123.49L33.0876 130.975L29.4052 138.656L27.585 142.508L25.9455 146.437C25.5675 147.362 25.1795 148.284 24.7913 149.205C24.0769 150.902 23.362 152.599 22.7085 154.321C18.7061 164.957 15.3811 175.846 12.806 186.927C2.77058 231.327 5.65164 278.457 20.567 321.448C35.0484 362.924 60.7943 400.545 94.7235 428.513C108.495 443.23 124.064 456.226 140.966 467.075C178.883 491.258 223.5 504.69 268.064 504.468L259.746 503.848L255.591 503.524L251.457 503.005C250.489 502.877 249.52 502.757 248.551 502.638C246.766 502.418 244.981 502.198 243.203 501.925L235.011 500.462C224.136 498.366 213.352 495.744 202.906 492.101C199.202 490.963 195.598 489.542 191.998 488.122C190.46 487.516 188.924 486.91 187.38 486.326C185.865 485.632 184.34 484.959 182.816 484.287C179.291 482.732 175.768 481.179 172.37 479.358C162.472 474.498 153.042 468.745 143.979 462.523C139.843 459.692 135.798 456.731 131.852 453.648C159.924 469.084 191.005 478.979 222.824 482.118C267.914 486.887 314.064 478.393 354.46 458.592C394.785 438.681 429.383 407.472 452.273 369.235L447.436 376.03L445.007 379.416L442.421 382.683C441.81 383.445 441.206 384.213 440.602 384.98C439.489 386.393 438.377 387.805 437.223 389.185L431.728 395.434C424.303 403.652 416.474 411.519 407.948 418.568C405.056 421.147 401.974 423.494 398.895 425.838C397.58 426.84 396.266 427.84 394.967 428.859C393.588 429.795 392.223 430.751 390.859 431.707C387.703 433.917 384.55 436.126 381.232 438.09C371.949 444.039 362.143 449.126 352.127 453.657C312.076 471.838 267.156 478.797 223.785 473.469C202.124 470.723 180.833 465.174 160.784 456.644C158.843 455.89 156.945 455.041 155.06 454.161C185.323 467.035 218.314 473.293 250.998 471.813C230.092 471.775 209.204 469.213 189.157 463.558C185.624 462.676 182.17 461.527 178.717 460.378C177.233 459.884 175.75 459.39 174.26 458.918C172.814 458.348 171.361 457.799 169.908 457.25C166.498 455.961 163.09 454.673 159.788 453.125C150.226 449.056 141.058 444.117 132.207 438.723C110.638 425.617 91.3358 408.856 75.2889 389.456C73.8463 387.52 72.4364 385.559 71.0581 383.576C67.2227 376.891 63.7156 370.023 60.5598 362.997C51.6901 343.045 45.4099 321.959 42.3223 300.39C41.9624 298.34 41.7062 296.276 41.4822 294.208C46.1436 326.764 57.8773 358.226 76.071 385.419C65.2756 367.515 56.6486 348.321 51.1035 328.242C50.0279 324.763 49.2222 321.213 48.4167 317.665C48.0706 316.14 47.7245 314.615 47.3571 313.096C47.0955 311.564 46.8127 310.037 46.53 308.509C45.8664 304.924 45.2033 301.342 44.8171 297.715C44.1702 293.193 43.7065 288.649 43.3926 284.095C50.9772 321.364 68.6637 356.582 94.5255 384.385C99.0199 389.273 103.746 393.938 108.679 398.368C115.365 406.515 122.678 414.132 130.563 421.106C124.585 415.263 118.913 409.112 113.617 402.665C137.01 422.397 164.633 437.013 194 445.197C231.843 455.615 272.531 455.284 309.749 443.682C290.906 448.541 271.491 451.121 252.112 450.73C248.721 450.763 245.338 450.537 241.959 450.311C240.509 450.214 239.059 450.117 237.609 450.041C236.158 449.864 234.706 449.708 233.253 449.552C229.896 449.192 226.542 448.832 223.219 448.212C213.656 446.786 204.244 444.49 195.011 441.704C158.05 430.629 124.258 409.291 98.7604 380.545C97.6037 379.235 96.4625 377.911 95.3373 376.574C95.1179 376.201 94.8998 375.827 94.683 375.452C92.898 372.568 91.3397 369.558 89.7828 366.55C89.1145 365.259 88.4465 363.969 87.761 362.689C87.161 361.356 86.5419 360.033 85.9231 358.71C84.4926 355.651 83.0633 352.595 81.872 349.432C78.1393 340.513 75.2289 331.272 72.83 321.931C63.1608 284.578 63.912 244.62 75.2967 207.92C81.0237 189.603 89.1225 172.032 99.5985 155.993C101.313 153.179 103.246 150.514 105.179 147.85C106.059 146.638 106.938 145.426 107.796 144.201L112.267 138.58L114.511 135.78L116.892 133.092L121.667 127.729L126.696 122.604C128.339 120.861 130.104 119.25 131.874 117.638C132.519 117.058 133.154 116.468 133.789 115.879C134.907 114.84 136.025 113.802 137.19 112.819C166.064 87.6686 202.168 71.1124 239.958 65.2564C277.721 59.1816 317.151 63.7386 352.499 78.4342C383.848 91.2779 411.621 112.354 433.098 138.609C433.158 138.706 433.217 138.804 433.276 138.902C433.232 138.823 433.188 138.744 433.144 138.665C435.941 142.086 438.631 145.595 441.208 149.185C448.253 159.164 454.475 169.749 459.709 180.812C460.564 183.38 461.375 185.964 462.139 188.562C461.615 186.521 461.061 184.487 460.48 182.459C461.967 185.675 463.37 188.931 464.686 192.223ZM86.6919 365.609C79.3671 352.078 73.5186 337.719 69.3178 322.876C58.7457 285.064 58.7986 244.201 69.8182 206.287C80.6278 168.285 102.889 133.697 132.555 107.509C162.28 81.2865 199.69 64.0898 238.794 57.8878C275.261 52.1358 313.196 55.916 347.738 68.9309C321.487 57.8176 293.097 51.7613 264.552 51.5305C262.909 51.4896 261.263 51.5288 259.617 51.568C258.701 51.5898 257.784 51.6117 256.868 51.6196C254.305 51.6549 251.746 51.6922 249.19 51.9244L241.518 52.4598L233.882 53.368L230.064 53.8314L226.275 54.4857L218.694 55.8165C217.147 56.1865 215.593 56.5317 214.039 56.877C210.584 57.6448 207.128 58.4127 203.742 59.4529C183.939 64.8722 164.965 73.2261 147.366 83.8694C112.22 105.292 83.1446 136.709 64.2363 173.537C61.0655 179.706 58.1352 186.018 55.5173 192.458C52.531 201.028 50.0571 209.783 48.1125 218.658C45.6387 238.472 46.0384 258.645 49.4637 278.344C49.7016 279.85 50.0105 281.344 50.3197 282.838C50.4952 283.687 50.6707 284.536 50.8334 285.388C51.2956 287.737 51.7595 290.081 52.3997 292.389L54.1793 299.345L56.2936 306.208L57.3591 309.637L58.5925 313.007L61.0853 319.742C61.689 321.111 62.2701 322.491 62.8512 323.87C64.129 326.904 65.4071 329.938 66.9266 332.862C72.4532 344.368 79.1081 355.323 86.6919 365.609ZM205.904 42.1377C203.863 42.7822 201.831 43.4565 199.809 44.1607C186.718 48.6351 174.053 54.3014 161.965 61.015C162.183 60.9033 162.398 60.7874 162.613 60.6716C162.879 60.5283 163.145 60.3852 163.415 60.2503C192.28 45.6921 224.338 37.7469 256.625 36.604C250.42 36.5055 244.214 36.6788 238.031 37.1141C227.212 37.9613 216.46 39.644 205.904 42.1377ZM119.734 76.4041C97.1572 92.962 77.7139 113.788 63.0001 137.653C62.114 139.037 61.2951 140.465 60.4764 141.893C60.0203 142.689 59.5642 143.484 59.0966 144.272C57.7993 146.483 56.5057 148.691 55.3805 150.998L51.8652 157.838L48.6873 164.84L47.106 168.347L45.7034 171.927L42.9155 179.101C42.4306 180.616 41.9212 182.124 41.4117 183.632C40.2789 186.986 39.1458 190.34 38.282 193.775C32.9156 212.629 30.229 232.221 29.9882 251.856C30.2852 245.867 30.8038 239.888 31.545 233.937C37.2019 188.749 56.382 145.492 85.3513 110.424C95.6619 97.9931 107.204 86.5888 119.734 76.4041Z" fill="url(#paint1_linear_9_10643)"/>
</g>
<g filter="url(#filter0_i_9_10643)">
<g clip-path="url(#clip1_9_10643)">
<rect width="295.83" height="295.929" transform="translate(130 637.787) rotate(-45)" fill="#001238"/>
<path d="M304.354 463.502L269.49 498.366L304.354 533.23L339.218 498.366L304.354 463.502Z" fill="#001238"/>
<path d="M321.842 480.99L339.218 498.366L304.354 533.23L290.758 519.633C289.719 516.105 290.583 512.137 293.365 509.355L300.69 516.68C296.646 512.636 296.65 506.071 300.69 502.03L308.015 509.355C303.971 505.311 303.974 498.746 308.019 494.702L315.344 502.027C311.299 497.982 311.299 491.421 315.344 487.377L322.668 494.702C318.924 490.957 318.645 485.051 321.842 480.99Z" fill="#22A2F2"/>
<path d="M304.354 463.502L317.951 477.099C318.99 480.627 318.126 484.595 315.343 487.377L308.019 480.052C312.059 484.093 312.059 490.661 308.019 494.702L300.694 487.377C304.734 491.418 304.734 497.986 300.69 502.03L293.365 494.705C297.406 498.746 297.409 505.311 293.365 509.355L286.04 502.03C289.781 505.771 290.064 511.68 286.867 515.742L269.49 498.366L304.354 463.502Z" fill="#F4F4F4"/>
<path d="M408.949 498.369L374.085 533.233L408.949 568.097L443.813 533.233L408.949 498.369Z" fill="#001238"/>
<path d="M339.222 498.37L304.358 533.233L339.222 568.097L374.086 533.233L339.222 498.37Z" fill="#001238"/>
<path d="M339.218 428.638L304.354 463.502L339.218 498.366L374.082 463.502L339.218 428.638Z" fill="#001238"/>
<path d="M315.249 461.323L317.428 459.144L318.23 462.122L319.025 465.099L316.051 464.301L313.07 463.502L315.249 461.323Z" fill="#22A2F2"/>
<path d="M319.607 456.965L321.786 454.786L322.588 457.764L323.383 460.741L320.409 459.943L317.428 459.144L319.607 456.965Z" fill="#F4F4F4"/>
<path d="M323.965 452.607L326.144 450.428L326.946 453.406L327.741 456.383L324.767 455.585L321.786 454.786L323.965 452.607Z" fill="#22A2F2"/>
<path d="M328.323 448.249L330.502 446.07L331.304 449.048L332.099 452.025L329.125 451.227L326.144 450.428L328.323 448.249Z" fill="#F4F4F4"/>
<path d="M332.681 443.891L334.86 441.712L335.662 444.69L336.457 447.667L333.483 446.869L330.502 446.07L332.681 443.891Z" fill="#22A2F2"/>
<path d="M337.039 439.533L339.218 437.354L340.02 440.332L340.815 443.309L337.841 442.511L334.86 441.712L337.039 439.533Z" fill="#F4F4F4"/>
<path d="M319.025 465.099L321.204 462.92L322.003 465.894L322.797 468.871L319.824 468.073L316.846 467.278L319.025 465.099Z" fill="#22A2F2"/>
<path d="M323.383 460.741L325.562 458.562L326.361 461.536L327.155 464.513L324.182 463.715L321.204 462.92L323.383 460.741Z" fill="#F4F4F4"/>
<path d="M327.741 456.383L329.92 454.204L330.719 457.178L331.514 460.155L328.54 459.357L325.562 458.562L327.741 456.383Z" fill="#22A2F2"/>
<path d="M332.099 452.025L334.278 449.846L335.077 452.82L335.871 455.797L332.898 454.999L329.92 454.204L332.099 452.025Z" fill="#F4F4F4"/>
<path d="M336.457 447.667L338.636 445.488L339.434 448.462L340.229 451.439L337.255 450.641L334.278 449.846L336.457 447.667Z" fill="#22A2F2"/>
<path d="M340.815 443.309L342.994 441.13L343.792 444.104L344.587 447.081L341.613 446.283L338.636 445.488L340.815 443.309Z" fill="#F4F4F4"/>
<path d="M322.797 468.871L324.976 466.692L325.778 469.67L326.573 472.647L323.599 471.849L320.618 471.05L322.797 468.871Z" fill="#22A2F2"/>
<path d="M327.155 464.513L329.334 462.334L330.136 465.312L330.931 468.289L327.957 467.491L324.976 466.692L327.155 464.513Z" fill="#F4F4F4"/>
<path d="M331.513 460.155L333.692 457.976L334.494 460.954L335.289 463.931L332.315 463.133L329.334 462.334L331.513 460.155Z" fill="#22A2F2"/>
<path d="M335.871 455.797L338.05 453.618L338.852 456.596L339.647 459.573L336.673 458.775L333.692 457.976L335.871 455.797Z" fill="#F4F4F4"/>
<path d="M340.229 451.439L342.408 449.26L343.21 452.238L344.005 455.215L341.031 454.417L338.05 453.618L340.229 451.439Z" fill="#22A2F2"/>
<path d="M344.587 447.081L346.766 444.902L347.568 447.88L348.363 450.857L345.389 450.059L342.408 449.26L344.587 447.081Z" fill="#F4F4F4"/>
<path d="M326.573 472.647L328.752 470.468L329.551 473.442L330.345 476.419L327.372 475.621L324.394 474.826L326.573 472.647Z" fill="#22A2F2"/>
<path d="M330.931 468.289L333.11 466.11L333.909 469.084L334.703 472.061L331.73 471.263L328.752 470.468L330.931 468.289Z" fill="#F4F4F4"/>
<path d="M335.289 463.931L337.468 461.752L338.267 464.726L339.061 467.703L336.088 466.905L333.11 466.11L335.289 463.931Z" fill="#22A2F2"/>
<path d="M339.647 459.573L341.826 457.394L342.625 460.368L343.419 463.345L340.446 462.547L337.468 461.752L339.647 459.573Z" fill="#F4F4F4"/>
<path d="M344.005 455.215L346.184 453.036L346.982 456.01L347.777 458.987L344.803 458.189L341.826 457.394L344.005 455.215Z" fill="#22A2F2"/>
<path d="M348.363 450.857L350.542 448.678L351.34 451.652L352.135 454.629L349.161 453.831L346.184 453.036L348.363 450.857Z" fill="#F4F4F4"/>
<path d="M330.345 476.419L332.524 474.24L333.326 477.218L334.121 480.195L331.147 479.397L328.167 478.598L330.345 476.419Z" fill="#22A2F2"/>
<path d="M334.704 472.061L336.883 469.882L337.684 472.86L338.479 475.837L335.505 475.039L332.525 474.24L334.704 472.061Z" fill="#F4F4F4"/>
<path d="M339.062 467.703L341.241 465.524L342.042 468.502L342.837 471.479L339.863 470.681L336.883 469.882L339.062 467.703Z" fill="#22A2F2"/>
<path d="M343.419 463.345L345.598 461.166L346.4 464.144L347.195 467.121L344.221 466.323L341.24 465.524L343.419 463.345Z" fill="#F4F4F4"/>
<path d="M347.777 458.988L349.956 456.809L350.758 459.786L351.553 462.763L348.579 461.965L345.598 461.167L347.777 458.988Z" fill="#22A2F2"/>
<path d="M352.135 454.629L354.314 452.45L355.116 455.428L355.911 458.405L352.937 457.607L349.956 456.808L352.135 454.629Z" fill="#F4F4F4"/>
<path d="M334.121 480.195L336.3 478.016L337.099 480.99L337.897 483.971L334.92 483.169L331.942 482.374L334.121 480.195Z" fill="#22A2F2"/>
<path d="M338.479 475.837L340.658 473.658L341.457 476.632L342.255 479.613L339.278 478.811L336.3 478.016L338.479 475.837Z" fill="#F4F4F4"/>
<path d="M342.837 471.479L345.016 469.3L345.815 472.274L346.613 475.255L343.636 474.453L340.658 473.658L342.837 471.479Z" fill="#22A2F2"/>
<path d="M347.195 467.121L349.374 464.942L350.173 467.916L350.971 470.897L347.994 470.095L345.016 469.3L347.195 467.121Z" fill="#F4F4F4"/>
<path d="M351.553 462.763L353.732 460.584L354.531 463.558L355.329 466.539L352.352 465.737L349.374 464.942L351.553 462.763Z" fill="#22A2F2"/>
<path d="M355.911 458.405L358.09 456.226L358.889 459.2L359.687 462.181L356.71 461.379L353.732 460.584L355.911 458.405Z" fill="#F4F4F4"/>
<path d="M337.897 483.971L340.076 481.792L340.874 484.766L341.669 487.743L338.695 486.945L335.718 486.15L337.897 483.971Z" fill="#22A2F2"/>
<path d="M342.255 479.613L344.434 477.434L345.232 480.407L346.027 483.385L343.053 482.586L340.076 481.792L342.255 479.613Z" fill="#F4F4F4"/>
<path d="M346.613 475.255L348.792 473.076L349.59 476.049L350.385 479.027L347.411 478.228L344.434 477.434L346.613 475.255Z" fill="#22A2F2"/>
<path d="M350.971 470.897L353.15 468.718L353.948 471.692L354.743 474.669L351.769 473.871L348.792 473.076L350.971 470.897Z" fill="#F4F4F4"/>
<path d="M355.329 466.539L357.508 464.36L358.306 467.334L359.101 470.311L356.127 469.513L353.15 468.718L355.329 466.539Z" fill="#22A2F2"/>
<path d="M359.687 462.181L361.866 460.002L362.664 462.976L363.459 465.953L360.485 465.155L357.508 464.36L359.687 462.181Z" fill="#F4F4F4"/>
<path d="M269.456 498.331L234.592 533.195L269.456 568.059L304.319 533.195L269.456 498.331Z" fill="#001238"/>
<path d="M374.086 463.505L339.222 498.369L374.086 533.233L408.949 498.369L374.086 463.505Z" fill="#001238"/>
<path d="M374.082 472.218L400.23 498.366L391.514 507.082L369.724 485.292C364.913 490.103 364.913 497.913 369.724 502.724L382.798 515.798L374.082 524.514L347.934 498.366L374.082 472.218Z" fill="#22A2F2"/>
</g>
<g clip-path="url(#clip2_9_10643)">
<rect width="295.83" height="295.929" transform="translate(339.183 428.603) rotate(-45)" fill="#001238"/>
<path d="M408.949 428.642L374.086 463.506L408.949 498.37L443.813 463.506L408.949 428.642Z" fill="#001238"/>
<path d="M406.334 476.58L401.105 471.35C398.218 474.237 398.218 478.922 401.105 481.809L408.949 489.654L414.179 484.424L419.408 479.194L424.638 473.965L429.868 468.735L435.097 463.506L422.023 450.432C419.136 453.318 419.136 458.004 422.023 460.891L416.794 455.661C413.907 458.548 413.907 463.234 416.794 466.12L411.564 460.891C408.677 463.778 408.677 468.463 411.564 471.35L406.334 466.12C403.448 469.007 403.448 473.693 406.334 476.58Z" fill="#22A2F2"/>
<path d="M411.564 450.432L416.794 455.661C419.68 452.775 419.68 448.089 416.794 445.202L408.949 437.358L403.72 442.587L398.49 447.817L393.261 453.046L388.031 458.276L382.801 463.506L395.875 476.58C398.762 473.693 398.762 469.007 395.875 466.12L401.105 471.35C403.992 468.463 403.992 463.778 401.105 460.891L406.335 466.12C409.221 463.234 409.221 458.548 406.335 455.661L411.564 460.891C414.451 458.004 414.451 453.318 411.564 450.432Z" fill="#F4F4F4"/>
<path d="M513.541 463.505L478.677 498.369L513.541 533.233L548.405 498.369L513.541 463.505Z" fill="#001238"/>
<path d="M531.029 480.993L548.405 498.369L513.541 533.233L499.944 519.636C498.905 516.108 499.77 512.141 502.552 509.358L509.877 516.683C505.832 512.639 505.836 506.074 509.877 502.034L517.202 509.358C513.157 505.314 513.161 498.749 517.205 494.705L524.53 502.03C520.486 497.986 520.486 491.424 524.53 487.38L531.855 494.705C528.11 490.961 527.832 485.055 531.029 480.993Z" fill="#22A2F2"/>
<path d="M513.541 463.505L527.138 477.102C528.177 480.631 527.312 484.598 524.53 487.38L517.205 480.055C521.246 484.096 521.246 490.664 517.205 494.705L509.88 487.38C513.921 491.421 513.921 497.989 509.877 502.034L502.552 494.709C506.593 498.749 506.596 505.314 502.552 509.358L495.227 502.034C498.968 505.774 499.25 511.684 496.053 515.746L478.677 498.369L513.541 463.505Z" fill="#F4F4F4"/>
<path d="M513.538 254.319L478.674 289.183L513.538 324.047L548.402 289.183L513.538 254.319Z" fill="#001238"/>
<path d="M531.026 271.807L548.402 289.183L513.538 324.047L499.941 310.45C498.902 306.922 499.767 302.954 502.549 300.172L509.874 307.497C505.829 303.453 505.833 296.888 509.874 292.847L517.198 300.172C513.154 296.128 513.158 289.563 517.202 285.519L524.527 292.844C520.483 288.799 520.483 282.238 524.527 278.194L531.852 285.519C528.107 281.774 527.828 275.868 531.026 271.807Z" fill="#22A2F2"/>
<path d="M513.538 254.319L527.135 267.916C528.174 271.444 527.309 275.412 524.527 278.194L517.202 270.869C521.243 274.91 521.243 281.478 517.202 285.519L509.877 278.194C513.918 282.234 513.918 288.803 509.874 292.847L502.549 285.522C506.589 289.563 506.593 296.128 502.549 300.172L495.224 292.847C498.965 296.588 499.247 302.497 496.05 306.559L478.674 289.183L513.538 254.319Z" fill="#F4F4F4"/>
<path d="M478.677 428.642L443.813 463.506L478.677 498.37L513.541 463.506L478.677 428.642Z" fill="#001238"/>
<path d="M478.677 437.358L486.058 444.738L486.058 452.541C486.054 454.901 485.109 457.045 483.572 458.611C483.565 458.618 483.558 458.618 483.555 458.628L483.485 458.698C483.478 458.698 483.474 458.708 483.471 458.712C481.906 460.249 479.765 461.198 477.401 461.198V438.634L478.677 437.358Z" fill="#F4F4F4"/>
<path d="M497.441 456.121L504.822 463.502L503.549 464.775L480.985 464.775C480.985 462.411 481.93 460.267 483.471 458.705C483.502 458.666 483.534 458.635 483.569 458.607C485.13 457.066 487.275 456.121 489.638 456.121L497.441 456.121Z" fill="#22A2F2"/>
<path d="M477.405 461.194C477.401 463.554 476.456 465.699 474.919 467.264C474.88 467.295 474.849 467.327 474.821 467.362C473.256 468.899 471.115 469.847 468.751 469.847L458.878 469.847L452.533 463.502L454.841 461.194L477.405 461.194Z" fill="#22A2F2"/>
<path d="M480.985 464.775L480.985 487.339L478.677 489.647L472.332 483.301L472.332 473.428C472.332 471.071 473.27 468.941 474.797 467.379C474.842 467.327 474.887 467.281 474.94 467.236C476.495 465.716 478.632 464.778 480.985 464.775Z" fill="#F4F4F4"/>
<path d="M478.677 358.914L443.813 393.778L478.677 428.642L513.541 393.778L478.677 358.914Z" fill="#001238"/>
<path d="M465.603 391.163L470.833 385.933C467.946 383.046 463.261 383.046 460.374 385.933L452.529 393.778L457.759 399.007L462.989 404.237L468.218 409.466L473.448 414.696L478.677 419.926L491.751 406.852C488.865 403.965 484.179 403.965 481.292 406.852L486.522 401.622C483.635 398.735 478.949 398.735 476.063 401.622L481.292 396.392C478.405 393.506 473.72 393.506 470.833 396.392L476.063 391.163C473.176 388.276 468.49 388.276 465.603 391.163Z" fill="#22A2F2"/>
<path d="M408.911 358.876L374.047 393.74L408.911 428.603L443.775 393.74L408.911 358.876Z" fill="#001238"/>
<path d="M391.51 402.431L400.223 393.719C398.619 392.115 396.018 392.115 394.415 393.719L388.606 399.527L391.51 402.431Z" fill="#22A2F2"/>
<path d="M385.72 396.64L394.432 387.928C392.828 386.324 390.227 386.324 388.624 387.928L382.815 393.736L385.72 396.64Z" fill="#22A2F2"/>
<path d="M403.106 414.027L411.819 405.314C410.215 403.711 407.614 403.711 406.01 405.314L400.202 411.123L403.106 414.027Z" fill="#22A2F2"/>
<path d="M397.319 408.239L406.031 399.527C404.428 397.923 401.827 397.923 400.223 399.527L394.415 405.335L397.319 408.239Z" fill="#22A2F2"/>
<path d="M408.915 419.835L417.627 411.123C416.023 409.519 413.422 409.519 411.819 411.123L406.01 416.931L408.915 419.835Z" fill="#22A2F2"/>
<path d="M417.63 376.311L408.918 385.024C407.314 383.42 407.314 380.819 408.918 379.215L414.726 373.407L417.63 376.311Z" fill="#F4F4F4"/>
<path d="M411.84 370.52L403.127 379.233C401.523 377.629 401.523 375.028 403.127 373.424L408.935 367.616L411.84 370.52Z" fill="#F4F4F4"/>
<path d="M429.226 387.907L420.514 396.619C418.91 395.016 418.91 392.415 420.514 390.811L426.322 385.003L429.226 387.907Z" fill="#F4F4F4"/>
<path d="M423.439 382.119L414.726 390.832C413.123 389.228 413.123 386.627 414.726 385.024L420.535 379.215L423.439 382.119Z" fill="#F4F4F4"/>
<path d="M435.034 393.715L426.322 402.428C424.718 400.824 424.718 398.223 426.322 396.62L432.13 390.811L435.034 393.715Z" fill="#F4F4F4"/>
<path d="M478.677 498.37L443.813 533.233L478.677 568.097L513.541 533.233L478.677 498.37Z" fill="#001238"/>
<path d="M478.639 289.148L443.775 324.012L478.639 358.876L513.503 324.012L478.639 289.148Z" fill="#001238"/>
<path d="M494.408 333.666C494.645 333.275 494.868 332.878 495.077 332.473C494.341 332.965 493.459 333.254 492.504 333.254C493.041 333.254 493.564 333.345 494.045 333.519C494.171 333.561 494.289 333.61 494.408 333.666Z" fill="#22A2F2"/>
<path d="M495.081 315.554C494.868 315.146 494.645 314.741 494.404 314.354C493.822 314.616 493.181 314.769 492.501 314.766C493.038 314.766 493.561 314.857 494.042 315.031C494.415 315.16 494.76 315.338 495.081 315.554Z" fill="#22A2F2"/>
<path d="M483.258 333.254C483.795 333.254 484.318 333.345 484.799 333.519C486.595 334.15 487.881 335.862 487.881 337.877C487.881 335.862 489.168 334.15 490.963 333.519C491.448 333.348 491.964 333.258 492.504 333.254C489.952 333.254 487.881 331.183 487.881 328.631C487.881 331.183 485.81 333.254 483.258 333.254Z" fill="#22A2F2"/>
<path d="M483.258 324.008C482.722 324.008 482.199 324.099 481.721 324.27C479.922 324.904 478.639 326.62 478.639 328.628L478.639 319.382C478.639 321.941 480.706 324.008 483.258 324.008Z" fill="#22A2F2"/>
<path d="M488.296 339.777C488.035 339.195 487.881 338.553 487.885 337.874C487.885 338.829 487.595 339.711 487.104 340.447C487.505 340.241 487.909 340.018 488.296 339.777Z" fill="#22A2F2"/>
<path d="M487.1 307.574C487.592 308.309 487.881 309.191 487.885 310.143C487.885 309.467 488.031 308.825 488.296 308.246C487.902 308.006 487.505 307.783 487.1 307.574Z" fill="#22A2F2"/>
<path d="M496.866 327.101C497.033 326.097 497.127 325.061 497.127 324.008C497.127 322.949 497.033 321.913 496.866 320.902C496.238 322.708 494.523 324.005 492.504 324.001C493.041 324.001 493.564 324.092 494.045 324.266C495.363 324.741 496.402 325.786 496.866 327.101Z" fill="#22A2F2"/>
<path d="M481.721 305.785C479.922 306.419 478.639 308.135 478.639 310.143L478.639 305.52C479.692 305.52 480.72 305.607 481.721 305.785Z" fill="#22A2F2"/>
<path d="M483.259 333.254C482.722 333.254 482.199 333.345 481.721 333.516C479.922 334.15 478.639 335.866 478.639 337.874L478.639 328.628C478.639 331.187 480.706 333.254 483.259 333.254Z" fill="#22A2F2"/>
<path d="M481.742 342.238C480.731 342.406 479.695 342.5 478.643 342.5L478.643 337.877C478.639 339.896 479.936 341.604 481.742 342.238Z" fill="#22A2F2"/>
<path d="M487.881 319.385C487.881 317.37 489.168 315.658 490.963 315.027C491.448 314.857 491.964 314.766 492.504 314.762C489.952 314.762 487.881 312.692 487.881 310.14C487.881 312.692 485.811 314.762 483.259 314.762C483.795 314.762 484.318 314.853 484.8 315.027C486.599 315.662 487.885 317.374 487.881 319.385Z" fill="#22A2F2"/>
<path d="M483.258 324.008C483.795 324.008 484.318 324.099 484.799 324.273C486.595 324.904 487.881 326.616 487.881 328.631C487.881 326.616 489.168 324.904 490.963 324.273C491.448 324.102 491.964 324.012 492.504 324.008C489.952 324.008 487.881 321.937 487.881 319.385C487.881 321.937 485.81 324.008 483.258 324.008Z" fill="#22A2F2"/>
<path d="M483.262 314.766C482.725 314.766 482.202 314.856 481.724 315.027C479.925 315.662 478.642 317.377 478.642 319.385L478.642 310.139C478.639 312.695 480.703 314.766 483.262 314.766Z" fill="#22A2F2"/>
<path d="M478.642 319.385L478.642 328.631C478.642 326.616 477.356 324.911 475.56 324.273C475.079 324.106 474.56 324.012 474.016 324.012C476.568 324.012 478.639 321.941 478.642 319.385Z" fill="#F4F4F4"/>
<path d="M464.77 333.258C464.233 333.258 463.71 333.348 463.233 333.519C463.111 333.565 462.985 333.613 462.867 333.669C462.629 333.286 462.41 332.885 462.201 332.473C462.936 332.965 463.818 333.254 464.77 333.258Z" fill="#F4F4F4"/>
<path d="M470.174 340.447C469.77 340.238 469.369 340.018 468.982 339.777C469.243 339.195 469.397 338.554 469.393 337.874C469.397 338.833 469.679 339.715 470.174 340.447Z" fill="#F4F4F4"/>
<path d="M478.639 305.52L478.639 310.143C478.639 308.128 477.352 306.423 475.557 305.785C476.561 305.611 477.59 305.523 478.639 305.52Z" fill="#F4F4F4"/>
<path d="M464.77 314.766C464.233 314.766 463.71 314.856 463.233 315.027C462.863 315.16 462.511 315.338 462.19 315.554C462.403 315.146 462.629 314.738 462.87 314.351C463.449 314.616 464.094 314.766 464.77 314.766Z" fill="#F4F4F4"/>
<path d="M470.174 307.57C469.682 308.305 469.393 309.187 469.397 310.139C469.397 309.463 469.25 308.821 468.989 308.246C469.369 308.006 469.77 307.786 470.174 307.57Z" fill="#F4F4F4"/>
<path d="M464.77 324.012C464.233 324.012 463.71 324.102 463.233 324.273C461.915 324.74 460.876 325.786 460.412 327.101C460.245 326.096 460.154 325.065 460.151 324.008C460.151 322.955 460.241 321.916 460.412 320.909C461.04 322.715 462.755 324.012 464.77 324.012Z" fill="#F4F4F4"/>
<path d="M478.639 328.628L478.639 337.874C478.639 335.859 477.352 334.154 475.557 333.516C475.076 333.349 474.556 333.254 474.012 333.254C476.568 333.258 478.639 331.187 478.639 328.628Z" fill="#F4F4F4"/>
<path d="M474.016 324.012C473.479 324.012 472.956 324.102 472.478 324.273C470.679 324.908 469.396 326.623 469.396 328.631C469.396 326.616 468.11 324.911 466.314 324.273C465.833 324.106 465.314 324.012 464.77 324.012C467.322 324.012 469.393 321.941 469.396 319.385C469.393 321.941 471.46 324.008 474.016 324.012Z" fill="#F4F4F4"/>
<path d="M474.013 333.254C473.476 333.254 472.953 333.345 472.475 333.516C470.676 334.15 469.393 335.865 469.393 337.874C469.393 335.858 468.107 334.154 466.311 333.516C465.83 333.348 465.311 333.254 464.767 333.254C467.319 333.254 469.39 331.183 469.393 328.628C469.397 331.183 471.461 333.254 474.013 333.254Z" fill="#F4F4F4"/>
<path d="M478.639 337.874V342.497C477.579 342.497 476.544 342.402 475.539 342.235C477.345 341.607 478.639 339.896 478.639 337.874Z" fill="#F4F4F4"/>
<path d="M474.016 314.766C473.479 314.766 472.956 314.857 472.479 315.027C470.68 315.662 469.397 317.377 469.397 319.385C469.397 317.37 468.11 315.665 466.315 315.027C465.833 314.86 465.314 314.766 464.77 314.766C467.322 314.766 469.393 312.695 469.397 310.139C469.393 312.695 471.461 314.762 474.016 314.766Z" fill="#F4F4F4"/>
<path d="M478.639 310.143L478.639 319.389C478.639 317.374 477.353 315.669 475.557 315.031C475.076 314.863 474.556 314.769 474.013 314.769C476.568 314.766 478.639 312.695 478.639 310.143Z" fill="#F4F4F4"/>
<path d="M374.047 393.739L339.183 428.603L374.047 463.467L408.911 428.603L374.047 393.739Z" fill="#001238"/>
<path d="M388.132 437.166L382.613 442.685L388.721 448.793L394.24 443.274L388.132 437.166Z" fill="#F4F4F4"/>
<path d="M388.132 437.166L377.683 426.717C374.633 429.768 374.636 434.708 377.683 437.755L382.613 442.685L372.297 453.001L367.51 435.141L362.723 417.28L380.584 422.067L398.445 426.853L388.132 437.166Z" fill="#22A2F2"/>
<path d="M443.775 324.012L408.911 358.875L443.775 393.739L478.639 358.875L443.775 324.012Z" fill="#001238"/>
<path d="M461.207 376.307L443.775 393.739L443.764 376.297L443.758 358.858L461.196 358.865L478.639 358.876L461.207 376.307Z" fill="#F4F4F4"/>
<path d="M426.343 341.444L443.775 324.012L443.771 341.44L443.771 358.872L426.339 358.872L408.911 358.875L426.343 341.444Z" fill="#22A2F2"/>
<path d="M443.813 393.778L408.949 428.642L443.813 463.506L478.677 428.642L443.813 393.778Z" fill="#001238"/>
<path d="M455.388 405.353L478.677 428.642L455.388 451.931V405.353Z" fill="#22A2F2"/>
<path d="M443.813 393.778L455.479 405.443L455.482 451.837L443.813 463.506L432.193 451.886L432.19 405.402L443.813 393.778Z" fill="#F4F4F4"/>
<path d="M432.19 405.402L432.193 451.886L408.949 428.642L432.19 405.402Z" fill="#001238"/>
<path d="M443.813 463.505L408.949 498.369L443.813 533.233L478.677 498.369L443.813 463.505Z" fill="#001238"/>
<path d="M443.813 463.506L426.381 480.938L461.245 515.801L478.677 498.369L443.813 463.506Z" fill="#22A2F2"/>
<path d="M513.541 324.05L478.677 358.914L513.541 393.778L548.405 358.914L513.541 324.05Z" fill="#001238"/>
<path d="M513.541 324.05L548.405 358.914C547.46 359.859 546.46 360.706 545.407 361.459C536.837 367.644 525.179 367.644 516.609 361.459C516.459 361.351 516.309 361.243 516.163 361.131C515.26 360.451 514.395 359.698 513.576 358.879C512.753 358.056 511.997 357.188 511.317 356.278C511.202 356.135 511.09 355.982 510.986 355.828C504.811 347.262 504.815 335.621 510.986 327.059C511.746 326.006 512.593 324.998 513.541 324.05Z" fill="#22A2F2"/>
<path d="M478.677 358.914C488.303 349.288 503.915 349.288 513.541 358.914C523.167 368.54 523.167 384.152 513.541 393.778L478.677 358.914Z" fill="#F4F4F4"/>
<path d="M513.538 393.774L478.674 428.638L513.538 463.502L548.401 428.638L513.538 393.774Z" fill="#001238"/>
<path d="M530.97 411.206L548.402 428.638L513.538 463.502L496.106 446.07L506.917 435.259C506.927 435.248 506.931 435.238 506.941 435.234L520.13 422.045C520.137 422.031 520.148 422.028 520.155 422.021L530.97 411.206Z" fill="#F4F4F4"/>
<path d="M513.538 393.774L523.896 404.132L523.896 412.89C523.889 416.105 522.721 419.058 520.775 421.338C520.58 421.575 520.368 421.801 520.155 422.021C520.148 422.028 520.137 422.032 520.13 422.045L520.026 422.15C520.012 422.15 520.012 422.164 520.005 422.171C519.782 422.387 519.555 422.6 519.315 422.799C517.118 424.674 514.298 425.828 511.216 425.905C511.104 425.912 510.982 425.915 510.867 425.919L510.874 396.438L513.538 393.774Z" fill="#22A2F2"/>
<path d="M510.818 425.968C510.815 426.083 510.808 426.208 510.808 426.313C510.724 429.402 509.574 432.219 507.698 434.415C507.499 434.656 507.286 434.882 507.07 435.105C507.063 435.112 507.049 435.112 507.046 435.13L506.941 435.234C506.931 435.238 506.927 435.248 506.917 435.259C506.697 435.472 506.471 435.684 506.234 435.879C503.954 437.825 501.004 438.989 497.786 439L489.035 439L478.674 428.638L481.334 425.978L510.337 425.968L510.818 425.968Z" fill="#22A2F2"/>
<path d="M516.205 431.354L516.201 431.832L516.198 460.842L513.538 463.502L503.173 453.137L503.173 444.386C503.18 440.83 504.599 437.605 506.917 435.259C506.927 435.248 506.931 435.238 506.941 435.234L507.07 435.105C509.347 432.857 512.439 431.452 515.863 431.361C515.971 431.365 516.086 431.354 516.205 431.354Z" fill="#001238"/>
</g>
</g>
</g>
<defs>
<filter id="filter0_i_9_10643" x="130" y="219.42" width="627.62" height="628.71" filterUnits="userSpaceOnUse" color-interpolation-filters="sRGB">
<feFlood flood-opacity="0" result="BackgroundImageFix"/>
<feBlend mode="normal" in="SourceGraphic" in2="BackgroundImageFix" result="shape"/>
<feColorMatrix in="SourceAlpha" type="matrix" values="0 0 0 0 0 0 0 0 0 0 0 0 0 0 0 0 0 0 127 0" result="hardAlpha"/>
<feOffset dy="1.09046"/>
<feGaussianBlur stdDeviation="7.9058"/>
<feComposite in2="hardAlpha" operator="arithmetic" k2="-1" k3="1"/>
<feColorMatrix type="matrix" values="0 0 0 0 0 0 0 0 0 0 0 0 0 0 0 0 0 0 1 0"/>
<feBlend mode="normal" in2="shape" result="effect1_innerShadow_9_10643"/>
</filter>
<linearGradient id="paint0_linear_9_10643" x1="88.9113" y1="83.1153" x2="307.631" y2="305.282" gradientUnits="userSpaceOnUse">
<stop offset="0.359375" stop-color="#001238"/>
<stop offset="1" stop-color="#22A2F2"/>
</linearGradient>
<linearGradient id="paint1_linear_9_10643" x1="-105.294" y1="342.417" x2="372.349" y2="222.236" gradientUnits="userSpaceOnUse">
<stop offset="0.359375" stop-color="#001238"/>
<stop offset="1" stop-color="#22A2F2"/>
</linearGradient>
<clipPath id="clip0_9_10643">
<rect width="500" height="500" fill="white" transform="translate(0.796631 0.419922)"/>
</clipPath>
<clipPath id="clip1_9_10643">
<rect width="295.83" height="295.929" fill="white" transform="translate(130 637.787) rotate(-45)"/>
</clipPath>
<clipPath id="clip2_9_10643">
<rect width="295.83" height="295.929" fill="white" transform="translate(339.183 428.603) rotate(-45)"/>
</clipPath>
</defs>
</svg>
