<svg width="500" height="500" viewBox="0 0 500 500" fill="none" xmlns="http://www.w3.org/2000/svg">
<g clip-path="url(#clip0_285_1215)">
<path fill-rule="evenodd" clip-rule="evenodd" d="M397.512 217.265C399.306 223.985 400.682 230.822 401.457 237.728C403.057 251.523 402.859 265.529 400.586 279.192C399.454 286.024 397.866 292.768 395.83 299.372C393.751 305.96 391.223 312.398 388.278 318.629C385.339 324.861 381.981 330.896 378.157 336.613C374.324 342.324 370.114 347.764 365.572 352.9C369.881 347.567 373.828 341.957 377.376 336.117C380.97 330.304 384.104 324.22 386.802 317.961C389.505 311.705 391.784 305.273 393.614 298.72C395.4 292.157 396.737 285.482 397.622 278.754C397.868 276.962 398.074 275.165 398.252 273.366C397.501 278.031 396.548 282.657 395.376 287.224C397.622 277.02 398.8 266.594 398.904 256.177C398.512 236.635 394.242 217.219 386.363 199.422C381.468 188.509 375.237 178.201 367.871 168.799C369.766 171.366 371.571 173.999 373.281 176.694C376.71 182.14 379.77 187.81 382.435 193.656C385.06 199.523 387.278 205.558 389.081 211.71C392.762 224.001 394.447 236.821 394.483 249.578C393.453 224.086 385.522 198.956 371.27 178.003C364.299 167.446 355.796 157.936 346.23 149.715C336.659 141.486 325.899 134.698 314.477 129.425C291.557 119.063 265.811 114.959 240.919 118.334C216.033 121.577 192.152 131.915 172.703 147.743C153.166 163.455 138.095 184.69 129.946 208.434C129.607 209.374 129.312 210.33 129.018 211.286C128.85 211.829 128.683 212.372 128.507 212.913C128.031 214.408 127.557 215.901 127.195 217.43L126.02 221.988L125.067 226.598L124.596 228.905L124.24 231.23L123.544 235.887C123.458 236.864 123.356 237.84 123.254 238.816C123.03 240.963 122.806 243.109 122.755 245.269C122.065 257.809 123.226 270.44 125.979 282.718C131.545 307.286 144.217 330.219 161.951 348.257C166.375 352.774 171.057 357.067 176.1 360.907C177.813 362.313 179.626 363.579 181.441 364.847C182.226 365.395 183.011 365.944 183.789 366.504C184.597 367.005 185.4 367.519 186.202 368.033C188.072 369.23 189.944 370.429 191.902 371.481C202.912 377.828 214.879 382.479 227.239 385.64C202.194 380.548 178.716 367.884 160.267 349.945C141.87 331.942 128.505 308.724 122.333 283.586C116.014 258.467 117.315 231.532 125.574 206.938C133.855 182.307 149.457 160.28 169.627 143.941C188.445 128.721 211.223 118.432 235.101 114.499C216.553 116.794 198.449 122.662 182.167 131.888C181.221 132.403 180.299 132.965 179.378 133.527C178.864 133.84 178.351 134.152 177.834 134.457C176.39 135.317 174.949 136.177 173.574 137.147L169.394 139.966L165.356 142.985L163.34 144.499L161.403 146.113L157.536 149.353C156.778 150.071 156.009 150.776 155.24 151.482C153.53 153.05 151.82 154.619 150.238 156.319C140.771 165.888 132.737 176.85 126.234 188.662C113.302 212.346 107.092 239.714 108.429 266.822C108.65 271.363 109.056 275.908 109.68 280.422C112.77 296.636 118.564 312.362 126.815 326.705C130.195 332.6 133.901 338.333 138.109 343.691C139.517 345.623 141.067 347.44 142.619 349.258C143.28 350.032 143.942 350.807 144.592 351.591C145.299 352.333 145.995 353.085 146.692 353.838C148.312 355.588 149.933 357.34 151.684 358.962C161.414 368.544 172.604 376.614 184.602 383.241C165.359 373.765 148.384 359.749 135.065 342.793C135.871 343.894 136.692 344.981 137.569 346.028C146.392 357.261 156.87 367.175 168.446 375.595C191.678 392.357 219.681 402.55 248.433 404.758C255.618 405.319 262.858 405.494 270.07 405.01C272.597 404.929 275.106 404.657 277.617 404.384C278.703 404.266 279.789 404.148 280.877 404.045C281.944 403.871 283.016 403.711 284.087 403.551C286.596 403.177 289.109 402.803 291.585 402.235C298.709 400.879 305.692 398.833 312.554 396.458L317.684 394.603C318.783 394.175 319.868 393.715 320.954 393.255C321.543 393.005 322.133 392.755 322.725 392.51L325.242 391.45L327.707 390.272L332.633 387.897C307.404 402.632 277.669 409.631 248.214 408.33C218.753 406.944 189.558 397.244 165.162 380.26C140.64 363.444 121.265 339.286 109.667 311.831C98.0659 284.32 94.7761 253.473 99.7287 224.067C104.742 194.658 117.975 166.674 137.766 144.338C142.746 138.785 148.096 133.581 153.755 128.735C154.675 127.952 155.622 127.203 156.568 126.454C157.082 126.047 157.596 125.64 158.105 125.229L160.289 123.489L162.551 121.851L167.093 118.602L171.788 115.584C184.348 107.579 198.132 101.6 212.398 97.4907C219.547 95.4801 226.834 93.9872 234.178 92.9737C241.524 91.9684 248.937 91.4233 256.341 91.5301C271.141 91.6835 285.92 93.7599 300.06 97.9811C307.127 100.093 314.041 102.679 320.744 105.714C327.425 108.796 333.887 112.329 340.072 116.277C346.26 120.218 352.183 124.574 357.705 129.379C363.219 134.194 368.394 139.371 373.201 144.858C368.12 139.621 362.707 134.728 356.998 130.233C351.328 125.689 345.313 121.591 339.056 117.934C332.805 114.272 326.313 111.034 319.64 108.256C312.945 105.525 306.078 103.249 299.098 101.446C271.204 94.0612 241.418 94.7049 214.014 102.986C186.665 111.409 161.642 127.319 142.993 148.926C137.027 155.758 131.693 163.126 127.031 170.9C127.118 170.766 127.202 170.629 127.286 170.493C127.391 170.324 127.495 170.156 127.604 169.991C142.886 146.669 165.058 128.034 190.429 116.542C215.814 105.065 244.395 100.704 272.026 104.35C278.926 105.298 285.755 106.717 292.467 108.56C293.543 108.86 294.611 109.198 295.678 109.536C296.27 109.723 296.862 109.911 297.455 110.091L299.945 110.872L302.396 111.768L307.289 113.584L312.083 115.638C324.85 121.169 336.698 128.716 347.348 137.613C357.922 146.609 367.309 156.993 374.998 168.52C377.946 172.944 380.666 177.516 383.145 182.214C385.958 187.175 388.506 192.286 390.754 197.521C393.464 203.942 395.707 210.549 397.512 217.265ZM333.865 202.578H177.23V163.42H294.707C315.988 163.42 333.314 180.417 333.854 201.561C333.865 201.906 333.865 202.234 333.865 202.576V202.578ZM196.811 339.634V222.161H235.969V300.477C235.969 322.098 218.434 339.634 196.811 339.634ZM275.126 339.634V222.161H314.284V300.477C314.284 322.098 296.75 339.634 275.126 339.634Z" fill="url(#paint0_linear_285_1215)"/>
<g style="mix-blend-mode:overlay">
<path fill-rule="evenodd" clip-rule="evenodd" d="M463.889 191.803C465.198 196.098 466.382 200.434 467.438 204.803C469.808 214.906 471.49 225.177 472.475 235.527C473.469 245.876 473.752 256.311 473.221 266.721C472.772 277.134 471.619 287.534 469.78 297.829C472.076 287.626 473.704 277.26 474.629 266.81C475.538 256.358 475.591 245.824 474.939 235.335C474.734 231.998 474.458 228.664 474.109 225.336C476.312 235.507 477.76 245.847 478.385 256.25C481.232 294.798 472.542 334.042 454.461 368.502C464.143 351.623 471.695 333.404 476.205 314.36C478.517 304.858 480.188 295.194 481.197 285.442C482.134 275.687 482.417 265.863 482.04 256.054C481.837 251.19 481.46 246.336 480.914 241.5C483.474 259.536 483.845 277.905 481.988 296.055C478.822 325.573 469.655 354.478 455.268 380.591C447.186 394.273 437.679 407.146 426.929 418.912C431.961 413.774 436.748 408.39 441.298 402.8C439.69 405.041 438.048 407.258 436.356 409.437C430.056 417.649 423.199 425.448 415.834 432.756C408.42 440.016 400.504 446.774 392.161 452.976C383.823 459.187 375.044 464.834 365.863 469.771C356.723 474.78 347.23 479.181 337.471 482.94C347.387 479.619 357.098 475.643 366.516 471.021C375.928 466.386 384.966 460.976 393.602 454.985C402.244 448.999 410.494 442.424 418.265 435.307C425.99 428.135 433.232 420.438 439.937 412.276C453.361 395.961 464.303 377.61 472.711 358.167C476.954 348.454 480.352 338.373 483.106 328.129C485.844 317.879 487.92 307.44 489.238 296.892C490.26 288.262 490.793 279.567 490.86 270.869C491.168 262.772 491.062 254.658 490.542 246.566C489.176 225.476 484.696 204.598 477.589 184.651C470.306 164.775 460.411 145.771 447.763 128.728L442.998 122.358L437.92 116.227L435.365 113.174L432.671 110.244C432.025 109.553 431.386 108.854 430.747 108.155C429.595 106.894 428.443 105.634 427.25 104.417C419.79 96.8633 411.852 89.7807 403.459 83.2661C402.212 82.3085 400.955 81.3644 399.688 80.4339C396.294 77.402 392.809 74.4691 389.235 71.6447C382.381 66.3011 375.219 61.3416 367.813 56.7789C361.047 52.322 354.051 48.2107 346.86 44.4642C343.445 42.6877 339.984 41.0033 336.48 39.4106C375.747 50.1899 412.338 71.153 441.436 100.078C449.281 107.782 456.616 116.026 463.377 124.74C470.073 133.498 476.18 142.726 481.644 152.332C487.12 161.934 491.941 171.935 495.965 182.263C500.078 192.555 503.497 203.145 506.215 213.939C504.049 203.025 501.162 192.24 497.55 181.673C493.92 171.114 489.418 160.844 484.251 150.918C479.09 140.986 473.249 131.39 466.774 122.224C460.234 113.102 453.073 104.413 445.348 96.2334C429.889 79.8731 411.951 65.8593 392.517 54.369C382.818 48.5809 372.61 43.6478 362.139 39.3727C351.664 35.1105 340.901 31.5255 329.923 28.7288C312.121 24.3125 293.801 21.7587 275.421 21.476C258.388 19.0146 241.062 18.409 223.901 20.027L215.984 20.8044L208.11 21.9729L204.175 22.5776L200.273 23.3643C199.347 23.5587 198.419 23.7431 197.49 23.9276C195.815 24.2603 194.14 24.5931 192.481 24.984C182.156 27.4527 171.985 30.5755 162.066 34.3804C122.455 49.816 87.4595 76.652 61.9669 110.65C36.5026 144.657 20.5655 185.86 17.2813 228.264C17.2569 228.565 17.2416 228.867 17.2264 229.168C17.214 229.412 17.2017 229.657 17.1845 229.901C17.702 216.083 19.4145 202.315 22.3673 188.798C31.4116 146.212 53.1633 106.555 83.5259 75.1959C114.066 43.9864 153.405 21.2328 196.116 10.6015C206.769 7.88052 217.621 5.87553 228.576 4.60512C239.537 3.41308 250.594 2.969 261.64 3.26959C272.69 3.5588 283.742 4.61467 294.661 6.521C305.595 8.33323 316.426 10.8938 327.067 14.1593C316.608 10.3593 305.887 7.24282 294.978 4.85926C284.065 2.49639 272.948 1.02793 261.781 0.307585C250.612 -0.422078 239.378 -0.395564 228.183 0.396148C216.994 1.26617 205.852 2.89169 194.854 5.26335C172.852 10.0143 151.574 18.1012 131.679 28.7743C121.704 34.0736 112.198 40.2503 103.117 46.9938C94.0465 53.7463 85.405 61.0971 77.327 69.0393C61.2794 85.0167 47.2512 103.14 36.3476 123.07L32.2909 130.555L28.6085 138.236L26.7883 142.088L25.1488 146.018C24.7708 146.942 24.3828 147.864 23.9946 148.785C23.2802 150.482 22.5653 152.179 21.9118 153.901C17.9094 164.537 14.5844 175.426 12.0093 186.507C1.97389 230.907 4.85495 278.037 19.7703 321.028C34.2517 362.504 59.9976 400.125 93.9268 428.094C107.699 442.81 123.267 455.807 140.169 466.655C178.086 490.838 222.703 504.271 267.267 504.048L258.95 503.429L254.795 503.104L250.661 502.585C249.692 502.457 248.723 502.337 247.754 502.218C245.969 501.998 244.185 501.778 242.407 501.505L234.215 500.042C223.339 497.946 212.555 495.324 202.109 491.681C198.405 490.543 194.801 489.122 191.201 487.702C189.664 487.096 188.127 486.49 186.583 485.906C185.068 485.212 183.543 484.54 182.019 483.867C178.494 482.313 174.972 480.759 171.573 478.938C161.676 474.078 152.246 468.325 143.183 462.103C139.046 459.272 135.002 456.311 131.056 453.228C159.127 468.664 190.209 478.559 222.027 481.698C267.117 486.467 313.268 477.973 353.663 458.172C393.988 438.261 428.587 407.052 451.477 368.815L446.639 375.61L444.21 378.996L441.625 382.263C441.014 383.025 440.409 383.793 439.805 384.56C438.693 385.973 437.581 387.385 436.426 388.765L430.932 395.015C423.506 403.232 415.677 411.099 407.151 418.148C404.26 420.727 401.177 423.074 398.099 425.418C396.783 426.42 395.469 427.42 394.17 428.439C392.792 429.375 391.427 430.331 390.062 431.287C386.906 433.497 383.753 435.706 380.435 437.67C371.152 443.619 361.346 448.706 351.33 453.237C311.279 471.418 266.359 478.377 222.988 473.049C201.327 470.303 180.037 464.754 159.987 456.225C158.046 455.47 156.149 454.621 154.263 453.741C184.526 466.615 217.517 472.873 250.202 471.393C229.295 471.355 208.408 468.794 188.36 463.138C184.827 462.256 181.373 461.107 177.92 459.958C176.437 459.464 174.953 458.971 173.463 458.498C172.018 457.929 170.564 457.379 169.111 456.83C165.701 455.541 162.293 454.253 158.991 452.705C149.429 448.636 140.262 443.697 131.411 438.303C109.841 425.197 90.5391 408.436 74.4922 389.036C73.0496 387.1 71.6397 385.139 70.2614 383.157C66.426 376.471 62.9189 369.603 59.7632 362.578C50.8934 342.626 44.6132 321.539 41.5256 299.971C41.1657 297.92 40.9095 295.856 40.6855 293.788C45.3469 326.344 57.0807 357.806 75.2743 384.999C64.4789 367.095 55.8519 347.901 50.3068 327.823C49.2312 324.343 48.4255 320.793 47.62 317.245C47.2739 315.72 46.9278 314.195 46.5604 312.676C46.2989 311.144 46.016 309.617 45.7333 308.089C45.0697 304.504 44.4066 300.922 44.0205 297.296C43.3735 292.773 42.9098 288.229 42.5959 283.675C50.1805 320.944 67.8671 356.162 93.7288 383.965C98.2232 388.853 102.95 393.518 107.883 397.948C114.568 406.095 121.881 413.712 129.766 420.686C123.789 414.843 118.116 408.692 112.82 402.245C136.213 421.977 163.836 436.593 193.203 444.777C231.047 455.195 271.735 454.864 308.952 443.262C290.109 448.122 270.695 450.701 251.315 450.31C247.924 450.343 244.542 450.117 241.162 449.891C239.712 449.794 238.262 449.697 236.813 449.621C235.362 449.444 233.909 449.288 232.457 449.132C229.1 448.772 225.745 448.412 222.422 447.792C212.859 446.366 203.447 444.07 194.214 441.284C157.254 430.209 123.461 408.871 97.9637 380.125C96.807 378.815 95.6658 377.491 94.5406 376.155C94.3212 375.781 94.1031 375.407 93.8863 375.032C92.1013 372.148 90.543 369.138 88.9861 366.13C88.3178 364.839 87.6498 363.549 86.9643 362.269C86.3643 360.936 85.7452 359.613 85.1264 358.29C83.696 355.231 82.2666 352.175 81.0753 349.012C77.3426 340.093 74.4322 330.852 72.0334 321.511C62.3642 284.158 63.1153 244.2 74.5 207.5C80.227 189.183 88.3258 171.612 98.8018 155.573C100.516 152.759 102.45 150.094 104.383 147.43C105.262 146.218 106.141 145.006 106.999 143.781L111.47 138.16L113.714 135.36L116.095 132.672L120.871 127.309L125.899 122.184C127.543 120.441 129.307 118.83 131.078 117.218C131.722 116.638 132.357 116.048 132.992 115.459C134.111 114.42 135.228 113.382 136.393 112.399C165.267 87.2487 201.371 70.6925 239.162 64.8365C276.924 58.7617 316.355 63.3186 351.702 78.0142C383.051 90.8579 410.824 111.934 432.302 138.189C432.361 138.287 432.42 138.384 432.479 138.482C432.435 138.403 432.392 138.324 432.348 138.245C435.144 141.666 437.834 145.175 440.411 148.765C447.456 158.745 453.678 169.329 458.912 180.392C459.768 182.96 460.578 185.544 461.342 188.142C460.818 186.101 460.265 184.067 459.683 182.04C461.17 185.256 462.573 188.511 463.889 191.803ZM85.8952 365.189C78.5704 351.658 72.7219 337.299 68.5211 322.456C57.949 284.644 58.0019 243.781 69.0215 205.867C79.8311 167.865 102.092 133.277 131.759 107.089C161.483 80.8666 198.893 63.6699 237.998 57.4679C274.464 51.7159 312.399 55.4961 346.941 68.511C320.69 57.3977 292.3 51.3413 263.756 51.1106C262.112 51.0697 260.466 51.1089 258.821 51.1481C257.904 51.1699 256.987 51.1917 256.071 51.1997C253.508 51.2349 250.949 51.2723 248.393 51.5045L240.722 52.0399L233.086 52.9481L229.267 53.4115L225.478 54.0658L217.897 55.3966C216.35 55.7666 214.796 56.1118 213.242 56.4571C209.787 57.2249 206.331 57.9928 202.945 59.033C183.142 64.4523 164.168 72.8061 146.57 83.4495C111.424 104.872 82.3479 136.289 63.4396 173.117C60.2689 179.286 57.3385 185.598 54.7206 192.038C51.7343 200.608 49.2604 209.363 47.3158 218.238C44.842 238.052 45.2417 258.225 48.667 277.924C48.9049 279.43 49.2138 280.924 49.523 282.419C49.6985 283.267 49.874 284.116 50.0367 284.968C50.4989 287.317 50.9628 289.661 51.603 291.969L53.3826 298.925L55.4969 305.788L56.5624 309.217L57.7958 312.587L60.2886 319.322C60.8923 320.691 61.4734 322.071 62.0545 323.45C63.3323 326.484 64.6105 329.518 66.1299 332.442C71.6565 343.948 78.3114 354.903 85.8952 365.189ZM205.108 41.7178C203.067 42.3622 201.035 43.0365 199.013 43.7408C185.921 48.2152 173.256 53.8814 161.169 60.595C161.386 60.4834 161.601 60.3675 161.816 60.2517C162.083 60.1084 162.348 59.9652 162.618 59.8303C191.483 45.2722 223.541 37.3269 255.828 36.1841C249.623 36.0856 243.417 36.2589 237.234 36.6942C226.416 37.5414 215.663 39.2241 205.108 41.7178ZM118.937 75.9842C96.3605 92.5421 76.9172 113.368 62.2034 137.233C61.3173 138.617 60.4984 140.045 59.6797 141.473C59.2236 142.269 58.7675 143.064 58.2999 143.852C57.0026 146.063 55.709 148.271 54.5838 150.578L51.0685 157.418L47.8906 164.42L46.3093 167.927L44.9067 171.507L42.1188 178.681C41.634 180.196 41.1245 181.704 40.615 183.212C39.4822 186.566 38.3492 189.92 37.4853 193.355C32.1189 212.209 29.4323 231.801 29.1915 251.436C29.4885 245.447 30.0071 239.468 30.7483 233.517C36.4053 188.329 55.5853 145.072 84.5546 110.004C94.8652 97.5731 106.407 86.1689 118.937 75.9842Z" fill="url(#paint1_linear_285_1215)"/>
</g>
<g filter="url(#filter0_i_285_1215)">
<g clip-path="url(#clip1_285_1215)">
<rect width="295.83" height="295.929" transform="translate(129.203 637.367) rotate(-45)" fill="#001238"/>
<path d="M303.558 463.082L268.694 497.946L303.558 532.81L338.422 497.946L303.558 463.082Z" fill="#001238"/>
<path d="M321.046 480.57L338.422 497.946L303.558 532.81L289.961 519.213C288.922 515.685 289.787 511.717 292.569 508.935L299.894 516.26C295.849 512.216 295.853 505.651 299.894 501.61L307.219 508.935C303.174 504.891 303.178 498.326 307.222 494.282L314.547 501.607C310.503 497.562 310.503 491.001 314.547 486.957L321.872 494.282C318.127 490.537 317.849 484.631 321.046 480.57Z" fill="#22A2F2"/>
<path d="M303.558 463.082L317.155 476.679C318.194 480.207 317.329 484.175 314.547 486.957L307.222 479.632C311.263 483.673 311.263 490.241 307.222 494.282L299.897 486.957C303.938 490.998 303.938 497.566 299.894 501.61L292.569 494.285C296.609 498.326 296.613 504.891 292.569 508.935L285.244 501.61C288.985 505.351 289.267 511.261 286.07 515.322L268.694 497.946L303.558 463.082Z" fill="#F4F4F4"/>
<path d="M408.153 497.949L373.289 532.813L408.153 567.677L443.017 532.813L408.153 497.949Z" fill="#001238"/>
<path d="M338.425 497.95L303.561 532.813L338.425 567.677L373.289 532.813L338.425 497.95Z" fill="#001238"/>
<path d="M338.422 428.218L303.558 463.082L338.422 497.946L373.286 463.082L338.422 428.218Z" fill="#001238"/>
<path d="M314.453 460.903L316.632 458.724L317.434 461.702L318.229 464.679L315.255 463.881L312.274 463.082L314.453 460.903Z" fill="#22A2F2"/>
<path d="M318.811 456.545L320.99 454.366L321.792 457.344L322.587 460.321L319.613 459.523L316.632 458.724L318.811 456.545Z" fill="#F4F4F4"/>
<path d="M323.169 452.187L325.348 450.008L326.15 452.986L326.945 455.963L323.971 455.165L320.99 454.366L323.169 452.187Z" fill="#22A2F2"/>
<path d="M327.527 447.829L329.706 445.65L330.508 448.628L331.302 451.605L328.329 450.807L325.348 450.008L327.527 447.829Z" fill="#F4F4F4"/>
<path d="M331.885 443.471L334.064 441.292L334.866 444.27L335.66 447.247L332.687 446.449L329.706 445.65L331.885 443.471Z" fill="#22A2F2"/>
<path d="M336.243 439.113L338.422 436.934L339.224 439.912L340.018 442.889L337.045 442.091L334.064 441.292L336.243 439.113Z" fill="#F4F4F4"/>
<path d="M318.229 464.679L320.408 462.5L321.206 465.474L322.001 468.451L319.027 467.653L316.05 466.858L318.229 464.679Z" fill="#22A2F2"/>
<path d="M322.587 460.321L324.766 458.142L325.564 461.116L326.359 464.093L323.385 463.295L320.408 462.5L322.587 460.321Z" fill="#F4F4F4"/>
<path d="M326.945 455.963L329.124 453.784L329.922 456.758L330.717 459.735L327.743 458.937L324.766 458.142L326.945 455.963Z" fill="#22A2F2"/>
<path d="M331.302 451.605L333.481 449.426L334.28 452.4L335.075 455.377L332.101 454.579L329.123 453.784L331.302 451.605Z" fill="#F4F4F4"/>
<path d="M335.66 447.247L337.839 445.068L338.638 448.042L339.433 451.02L336.459 450.221L333.481 449.426L335.66 447.247Z" fill="#22A2F2"/>
<path d="M340.018 442.889L342.197 440.71L342.996 443.684L343.791 446.661L340.817 445.863L337.839 445.068L340.018 442.889Z" fill="#F4F4F4"/>
<path d="M322.001 468.451L324.18 466.272L324.982 469.25L325.777 472.227L322.803 471.429L319.822 470.63L322.001 468.451Z" fill="#22A2F2"/>
<path d="M326.359 464.093L328.538 461.914L329.34 464.892L330.135 467.869L327.161 467.071L324.18 466.272L326.359 464.093Z" fill="#F4F4F4"/>
<path d="M330.717 459.735L332.896 457.556L333.698 460.534L334.493 463.511L331.519 462.713L328.538 461.914L330.717 459.735Z" fill="#22A2F2"/>
<path d="M335.075 455.377L337.254 453.198L338.056 456.176L338.85 459.153L335.877 458.355L332.896 457.556L335.075 455.377Z" fill="#F4F4F4"/>
<path d="M339.433 451.019L341.612 448.84L342.414 451.818L343.208 454.795L340.235 453.997L337.254 453.198L339.433 451.019Z" fill="#22A2F2"/>
<path d="M343.791 446.661L345.97 444.482L346.771 447.46L347.566 450.437L344.592 449.639L341.612 448.84L343.791 446.661Z" fill="#F4F4F4"/>
<path d="M325.777 472.227L327.956 470.048L328.754 473.022L329.549 475.999L326.575 475.201L323.598 474.406L325.777 472.227Z" fill="#22A2F2"/>
<path d="M330.135 467.869L332.314 465.69L333.112 468.664L333.907 471.641L330.933 470.843L327.956 470.048L330.135 467.869Z" fill="#F4F4F4"/>
<path d="M334.493 463.511L336.672 461.332L337.47 464.306L338.265 467.283L335.291 466.485L332.314 465.69L334.493 463.511Z" fill="#22A2F2"/>
<path d="M338.85 459.153L341.029 456.974L341.828 459.948L342.623 462.925L339.649 462.127L336.671 461.332L338.85 459.153Z" fill="#F4F4F4"/>
<path d="M343.208 454.795L345.387 452.616L346.186 455.59L346.981 458.567L344.007 457.769L341.029 456.974L343.208 454.795Z" fill="#22A2F2"/>
<path d="M347.566 450.437L349.745 448.258L350.544 451.232L351.339 454.209L348.365 453.411L345.387 452.616L347.566 450.437Z" fill="#F4F4F4"/>
<path d="M329.549 475.999L331.728 473.82L332.53 476.798L333.325 479.775L330.351 478.977L327.37 478.178L329.549 475.999Z" fill="#22A2F2"/>
<path d="M333.907 471.641L336.086 469.462L336.888 472.44L337.683 475.417L334.709 474.619L331.728 473.82L333.907 471.641Z" fill="#F4F4F4"/>
<path d="M338.265 467.283L340.444 465.104L341.246 468.082L342.041 471.059L339.067 470.261L336.086 469.462L338.265 467.283Z" fill="#22A2F2"/>
<path d="M342.623 462.925L344.802 460.747L345.604 463.724L346.399 466.701L343.425 465.903L340.444 465.104L342.623 462.925Z" fill="#F4F4F4"/>
<path d="M346.981 458.568L349.16 456.389L349.962 459.366L350.757 462.343L347.783 461.545L344.802 460.747L346.981 458.568Z" fill="#22A2F2"/>
<path d="M351.339 454.209L353.518 452.03L354.32 455.008L355.114 457.985L352.141 457.187L349.16 456.388L351.339 454.209Z" fill="#F4F4F4"/>
<path d="M333.325 479.775L335.504 477.596L336.302 480.57L337.1 483.551L334.123 482.749L331.146 481.954L333.325 479.775Z" fill="#22A2F2"/>
<path d="M337.683 475.417L339.862 473.238L340.66 476.212L341.458 479.193L338.481 478.391L335.504 477.596L337.683 475.417Z" fill="#F4F4F4"/>
<path d="M342.041 471.059L344.22 468.88L345.018 471.854L345.816 474.835L342.839 474.033L339.862 473.238L342.041 471.059Z" fill="#22A2F2"/>
<path d="M346.399 466.701L348.578 464.522L349.376 467.496L350.174 470.477L347.197 469.675L344.22 468.88L346.399 466.701Z" fill="#F4F4F4"/>
<path d="M350.757 462.343L352.936 460.164L353.734 463.138L354.532 466.119L351.555 465.317L348.578 464.522L350.757 462.343Z" fill="#22A2F2"/>
<path d="M355.114 457.985L357.293 455.806L358.092 458.78L358.89 461.761L355.913 460.959L352.935 460.164L355.114 457.985Z" fill="#F4F4F4"/>
<path d="M337.1 483.551L339.279 481.372L340.078 484.346L340.873 487.323L337.899 486.525L334.921 485.73L337.1 483.551Z" fill="#22A2F2"/>
<path d="M341.458 479.193L343.637 477.014L344.436 479.987L345.231 482.965L342.257 482.166L339.279 481.372L341.458 479.193Z" fill="#F4F4F4"/>
<path d="M345.816 474.835L347.995 472.656L348.794 475.63L349.589 478.607L346.615 477.809L343.637 477.014L345.816 474.835Z" fill="#22A2F2"/>
<path d="M350.174 470.477L352.353 468.298L353.152 471.272L353.946 474.249L350.973 473.451L347.995 472.656L350.174 470.477Z" fill="#F4F4F4"/>
<path d="M354.532 466.119L356.711 463.94L357.51 466.914L358.304 469.891L355.331 469.093L352.353 468.298L354.532 466.119Z" fill="#22A2F2"/>
<path d="M358.89 461.761L361.069 459.582L361.867 462.556L362.662 465.533L359.688 464.735L356.711 463.94L358.89 461.761Z" fill="#F4F4F4"/>
<path d="M268.659 497.911L233.795 532.775L268.659 567.639L303.523 532.775L268.659 497.911Z" fill="#001238"/>
<path d="M373.289 463.086L338.425 497.949L373.289 532.813L408.153 497.949L373.289 463.086Z" fill="#001238"/>
<path d="M373.285 471.798L399.433 497.946L390.717 506.662L368.928 484.872C364.116 489.683 364.116 497.493 368.928 502.304L382.001 515.378L373.285 524.094L347.138 497.946L373.285 471.798Z" fill="#22A2F2"/>
</g>
<g clip-path="url(#clip2_285_1215)">
<rect width="295.83" height="295.929" transform="translate(338.387 428.183) rotate(-45)" fill="#001238"/>
<path d="M408.153 428.222L373.289 463.086L408.153 497.95L443.017 463.086L408.153 428.222Z" fill="#001238"/>
<path d="M405.538 476.16L400.308 470.93C397.422 473.817 397.422 478.503 400.308 481.389L408.153 489.234L413.382 484.004L418.612 478.774L423.841 473.545L429.071 468.315L434.301 463.086L421.227 450.012C418.34 452.898 418.34 457.584 421.227 460.471L415.997 455.241C413.11 458.128 413.11 462.814 415.997 465.701L410.767 460.471C407.881 463.358 407.881 468.043 410.767 470.93L405.538 465.701C402.651 468.587 402.651 473.273 405.538 476.16Z" fill="#22A2F2"/>
<path d="M410.767 450.012L415.997 455.241C418.884 452.355 418.884 447.669 415.997 444.782L408.153 436.938L402.923 442.167L397.694 447.397L392.464 452.627L387.234 457.856L382.005 463.086L395.079 476.16C397.965 473.273 397.965 468.587 395.079 465.7L400.308 470.93C403.195 468.043 403.195 463.358 400.308 460.471L405.538 465.7C408.425 462.814 408.425 458.128 405.538 455.241L410.767 460.471C413.654 457.584 413.654 452.898 410.767 450.012Z" fill="#F4F4F4"/>
<path d="M512.744 463.086L477.88 497.949L512.744 532.813L547.608 497.949L512.744 463.086Z" fill="#001238"/>
<path d="M530.232 480.573L547.608 497.949L512.744 532.813L499.147 519.216C498.108 515.688 498.973 511.721 501.755 508.938L509.08 516.263C505.036 512.219 505.039 505.654 509.08 501.614L516.405 508.939C512.361 504.894 512.364 498.329 516.408 494.285L523.733 501.61C519.689 497.566 519.689 491.005 523.733 486.96L531.058 494.285C527.314 490.541 527.035 484.635 530.232 480.573Z" fill="#22A2F2"/>
<path d="M512.744 463.086L526.341 476.682C527.38 480.211 526.516 484.178 523.733 486.96L516.409 479.635C520.449 483.676 520.449 490.245 516.409 494.285L509.084 486.96C513.124 491.001 513.124 497.569 509.08 501.614L501.755 494.289C505.796 498.329 505.8 504.894 501.755 508.939L494.43 501.614C498.171 505.355 498.454 511.264 495.257 515.326L477.88 497.949L512.744 463.086Z" fill="#F4F4F4"/>
<path d="M512.741 253.899L477.877 288.763L512.741 323.627L547.605 288.763L512.741 253.899Z" fill="#001238"/>
<path d="M530.229 271.387L547.605 288.763L512.741 323.627L499.144 310.03C498.105 306.502 498.97 302.534 501.752 299.752L509.077 307.077C505.033 303.033 505.036 296.468 509.077 292.427L516.402 299.752C512.358 295.708 512.361 289.143 516.405 285.099L523.73 292.424C519.686 288.379 519.686 281.818 523.73 277.774L531.055 285.099C527.311 281.354 527.032 275.448 530.229 271.387Z" fill="#22A2F2"/>
<path d="M512.741 253.899L526.338 267.496C527.377 271.024 526.512 274.992 523.73 277.774L516.405 270.449C520.446 274.49 520.446 281.058 516.405 285.099L509.08 277.774C513.121 281.815 513.121 288.383 509.077 292.427L501.752 285.102C505.793 289.143 505.796 295.708 501.752 299.752L494.427 292.427C498.168 296.168 498.45 302.077 495.253 306.139L477.877 288.763L512.741 253.899Z" fill="#F4F4F4"/>
<path d="M477.88 428.222L443.017 463.086L477.88 497.95L512.744 463.086L477.88 428.222Z" fill="#001238"/>
<path d="M477.88 436.938L485.261 444.319V452.121C485.258 454.481 484.313 456.626 482.775 458.191C482.768 458.198 482.761 458.198 482.758 458.208L482.688 458.278C482.681 458.278 482.678 458.289 482.674 458.292C481.109 459.83 478.968 460.778 476.604 460.778V438.214L477.88 436.938Z" fill="#F4F4F4"/>
<path d="M496.644 455.701L504.025 463.082L502.752 464.355L480.189 464.355C480.189 461.991 481.133 459.847 482.674 458.285C482.706 458.247 482.737 458.215 482.772 458.187C484.334 456.646 486.478 455.701 488.842 455.701L496.644 455.701Z" fill="#22A2F2"/>
<path d="M476.608 460.774C476.604 463.135 475.66 465.279 474.122 466.844C474.084 466.875 474.052 466.907 474.025 466.942C472.459 468.479 470.319 469.428 467.955 469.428L458.081 469.428L451.736 463.082L454.044 460.774L476.608 460.774Z" fill="#22A2F2"/>
<path d="M480.188 464.355L480.188 486.919L477.88 489.227L471.535 482.881L471.535 473.008C471.535 470.651 472.473 468.521 474 466.959C474.045 466.907 474.091 466.862 474.143 466.816C475.698 465.296 477.835 464.358 480.188 464.355Z" fill="#F4F4F4"/>
<path d="M477.881 358.494L443.017 393.358L477.881 428.222L512.745 393.358L477.881 358.494Z" fill="#001238"/>
<path d="M464.807 390.743L470.036 385.513C467.15 382.627 462.464 382.627 459.577 385.513L451.733 393.358L456.962 398.587L462.192 403.817L467.422 409.046L472.651 414.276L477.881 419.506L490.955 406.432C488.068 403.545 483.382 403.545 480.495 406.432L485.725 401.202C482.838 398.315 478.153 398.315 475.266 401.202L480.495 395.972C477.609 393.086 472.923 393.086 470.036 395.972L475.266 390.743C472.379 387.856 467.693 387.856 464.807 390.743Z" fill="#22A2F2"/>
<path d="M408.114 358.456L373.251 393.32L408.114 428.183L442.978 393.32L408.114 358.456Z" fill="#001238"/>
<path d="M390.714 402.011L399.426 393.299C397.822 391.695 395.222 391.695 393.618 393.299L387.81 399.107L390.714 402.011Z" fill="#22A2F2"/>
<path d="M384.923 396.22L393.635 387.508C392.032 385.904 389.431 385.904 387.827 387.508L382.019 393.316L384.923 396.22Z" fill="#22A2F2"/>
<path d="M402.309 413.607L411.022 404.895C409.418 403.291 406.817 403.291 405.214 404.895L399.405 410.703L402.309 413.607Z" fill="#22A2F2"/>
<path d="M396.522 407.819L405.235 399.107C403.631 397.503 401.03 397.503 399.426 399.107L393.618 404.915L396.522 407.819Z" fill="#22A2F2"/>
<path d="M408.118 419.415L416.83 410.703C415.227 409.099 412.626 409.099 411.022 410.703L405.214 416.511L408.118 419.415Z" fill="#22A2F2"/>
<path d="M416.834 375.891L408.121 384.604C406.517 383 406.517 380.399 408.121 378.795L413.929 372.987L416.834 375.891Z" fill="#F4F4F4"/>
<path d="M411.043 370.1L402.33 378.813C400.727 377.209 400.727 374.608 402.33 373.005L408.139 367.196L411.043 370.1Z" fill="#F4F4F4"/>
<path d="M428.429 387.487L419.717 396.2C418.113 394.596 418.113 391.995 419.717 390.391L425.525 384.583L428.429 387.487Z" fill="#F4F4F4"/>
<path d="M422.642 381.699L413.93 390.412C412.326 388.808 412.326 386.207 413.93 384.604L419.738 378.795L422.642 381.699Z" fill="#F4F4F4"/>
<path d="M434.238 393.295L425.525 402.008C423.922 400.404 423.922 397.803 425.525 396.2L431.334 390.391L434.238 393.295Z" fill="#F4F4F4"/>
<path d="M477.881 497.95L443.017 532.813L477.881 567.677L512.745 532.813L477.881 497.95Z" fill="#001238"/>
<path d="M477.842 288.728L442.978 323.592L477.842 358.456L512.706 323.592L477.842 288.728Z" fill="#001238"/>
<path d="M493.611 333.246C493.848 332.855 494.071 332.458 494.28 332.053C493.545 332.545 492.663 332.834 491.708 332.834C492.244 332.834 492.767 332.925 493.249 333.099C493.374 333.141 493.493 333.19 493.611 333.246Z" fill="#22A2F2"/>
<path d="M494.284 315.134C494.071 314.726 493.848 314.322 493.608 313.935C493.026 314.196 492.384 314.349 491.704 314.346C492.241 314.346 492.764 314.437 493.245 314.611C493.618 314.74 493.963 314.918 494.284 315.134Z" fill="#22A2F2"/>
<path d="M482.462 332.834C482.999 332.834 483.522 332.925 484.003 333.099C485.798 333.73 487.085 335.442 487.085 337.457C487.085 335.442 488.371 333.73 490.167 333.099C490.651 332.928 491.167 332.838 491.708 332.834C489.156 332.834 487.085 330.763 487.085 328.211C487.085 330.763 485.014 332.834 482.462 332.834Z" fill="#22A2F2"/>
<path d="M482.462 323.588C481.925 323.588 481.402 323.679 480.924 323.85C479.125 324.484 477.842 326.2 477.842 328.208L477.842 318.962C477.842 321.521 479.91 323.588 482.462 323.588Z" fill="#22A2F2"/>
<path d="M487.499 339.357C487.238 338.775 487.084 338.134 487.088 337.454C487.088 338.409 486.799 339.291 486.307 340.027C486.708 339.821 487.112 339.598 487.499 339.357Z" fill="#22A2F2"/>
<path d="M486.304 307.154C486.795 307.889 487.085 308.771 487.088 309.723C487.088 309.047 487.235 308.405 487.5 307.827C487.106 307.586 486.708 307.363 486.304 307.154Z" fill="#22A2F2"/>
<path d="M496.069 326.681C496.236 325.677 496.33 324.641 496.33 323.589C496.33 322.529 496.236 321.493 496.069 320.482C495.441 322.288 493.726 323.585 491.708 323.582C492.244 323.582 492.767 323.672 493.249 323.847C494.566 324.321 495.605 325.367 496.069 326.681Z" fill="#22A2F2"/>
<path d="M480.924 305.365C479.125 305.999 477.842 307.715 477.842 309.723L477.842 305.1C478.895 305.1 479.924 305.187 480.924 305.365Z" fill="#22A2F2"/>
<path d="M482.462 332.834C481.925 332.834 481.402 332.925 480.924 333.096C479.125 333.73 477.842 335.446 477.842 337.454L477.842 328.208C477.842 330.767 479.91 332.834 482.462 332.834Z" fill="#22A2F2"/>
<path d="M480.945 341.819C479.934 341.986 478.899 342.08 477.846 342.08L477.846 337.457C477.842 339.476 479.139 341.184 480.945 341.819Z" fill="#22A2F2"/>
<path d="M487.085 318.965C487.085 316.95 488.371 315.239 490.167 314.608C490.651 314.437 491.167 314.346 491.708 314.343C489.156 314.343 487.085 312.272 487.085 309.72C487.085 312.272 485.014 314.343 482.462 314.343C482.999 314.343 483.522 314.433 484.003 314.607C485.802 315.242 487.088 316.954 487.085 318.965Z" fill="#22A2F2"/>
<path d="M482.462 323.588C482.999 323.588 483.522 323.679 484.003 323.853C485.798 324.484 487.085 326.196 487.085 328.211C487.085 326.196 488.371 324.484 490.167 323.853C490.651 323.683 491.167 323.592 491.708 323.588C489.156 323.588 487.085 321.517 487.085 318.965C487.085 321.517 485.014 323.588 482.462 323.588Z" fill="#22A2F2"/>
<path d="M482.465 314.346C481.928 314.346 481.405 314.436 480.928 314.607C479.129 315.242 477.846 316.957 477.846 318.965L477.846 309.719C477.842 312.275 479.906 314.346 482.465 314.346Z" fill="#22A2F2"/>
<path d="M477.846 318.965L477.846 328.211C477.846 326.196 476.559 324.491 474.764 323.853C474.283 323.686 473.763 323.592 473.219 323.592C475.771 323.592 477.842 321.521 477.846 318.965Z" fill="#F4F4F4"/>
<path d="M463.973 332.838C463.437 332.838 462.914 332.928 462.436 333.099C462.314 333.145 462.188 333.193 462.07 333.249C461.833 332.866 461.613 332.465 461.404 332.053C462.14 332.545 463.022 332.834 463.973 332.838Z" fill="#F4F4F4"/>
<path d="M469.377 340.027C468.973 339.818 468.572 339.598 468.185 339.357C468.447 338.775 468.6 338.134 468.596 337.454C468.6 338.413 468.882 339.295 469.377 340.027Z" fill="#F4F4F4"/>
<path d="M477.842 305.1L477.842 309.723C477.842 307.708 476.556 306.003 474.76 305.365C475.764 305.191 476.793 305.103 477.842 305.1Z" fill="#F4F4F4"/>
<path d="M463.973 314.346C463.437 314.346 462.914 314.437 462.436 314.607C462.066 314.74 461.714 314.918 461.394 315.134C461.606 314.726 461.833 314.318 462.073 313.931C462.652 314.196 463.297 314.346 463.973 314.346Z" fill="#F4F4F4"/>
<path d="M469.377 307.15C468.886 307.886 468.596 308.768 468.6 309.719C468.6 309.043 468.454 308.402 468.192 307.826C468.572 307.586 468.973 307.366 469.377 307.15Z" fill="#F4F4F4"/>
<path d="M463.973 323.592C463.437 323.592 462.914 323.682 462.436 323.853C461.118 324.32 460.079 325.366 459.615 326.681C459.448 325.677 459.357 324.645 459.354 323.588C459.354 322.535 459.445 321.496 459.615 320.489C460.243 322.295 461.958 323.592 463.973 323.592Z" fill="#F4F4F4"/>
<path d="M477.842 328.208L477.842 337.454C477.842 335.439 476.556 333.734 474.76 333.096C474.279 332.929 473.76 332.834 473.216 332.834C475.771 332.838 477.842 330.767 477.842 328.208Z" fill="#F4F4F4"/>
<path d="M473.219 323.592C472.682 323.592 472.159 323.682 471.682 323.853C469.883 324.488 468.6 326.203 468.6 328.211C468.6 326.196 467.313 324.491 465.518 323.853C465.037 323.686 464.517 323.592 463.973 323.592C466.525 323.592 468.596 321.521 468.6 318.965C468.596 321.521 470.664 323.588 473.219 323.592Z" fill="#F4F4F4"/>
<path d="M473.216 332.834C472.679 332.834 472.156 332.925 471.678 333.096C469.88 333.73 468.597 335.446 468.597 337.454C468.597 335.439 467.31 333.734 465.515 333.096C465.033 332.928 464.514 332.834 463.97 332.834C466.522 332.834 468.593 330.763 468.597 328.208C468.6 330.763 470.664 332.834 473.216 332.834Z" fill="#F4F4F4"/>
<path d="M477.842 337.454V342.077C476.782 342.077 475.747 341.982 474.743 341.815C476.549 341.188 477.842 339.476 477.842 337.454Z" fill="#F4F4F4"/>
<path d="M473.219 314.346C472.683 314.346 472.16 314.437 471.682 314.607C469.883 315.242 468.6 316.957 468.6 318.965C468.6 316.95 467.313 315.245 465.518 314.607C465.037 314.44 464.517 314.346 463.974 314.346C466.526 314.346 468.596 312.275 468.6 309.72C468.596 312.275 470.664 314.342 473.219 314.346Z" fill="#F4F4F4"/>
<path d="M477.842 309.723L477.842 318.969C477.842 316.954 476.556 315.249 474.76 314.611C474.279 314.443 473.76 314.349 473.216 314.349C475.771 314.346 477.842 312.275 477.842 309.723Z" fill="#F4F4F4"/>
<path d="M373.25 393.319L338.386 428.183L373.25 463.047L408.114 428.183L373.25 393.319Z" fill="#001238"/>
<path d="M387.336 436.746L381.817 442.265L387.925 448.373L393.444 442.854L387.336 436.746Z" fill="#F4F4F4"/>
<path d="M387.335 436.746L376.887 426.298C373.836 429.348 373.84 434.288 376.887 437.335L381.817 442.265L371.5 452.581L366.713 434.721L361.927 416.86L379.787 421.647L397.648 426.434L387.335 436.746Z" fill="#22A2F2"/>
<path d="M442.978 323.592L408.114 358.456L442.978 393.319L477.842 358.456L442.978 323.592Z" fill="#001238"/>
<path d="M460.41 375.888L442.978 393.319L442.968 375.877L442.961 358.438L460.4 358.445L477.842 358.456L460.41 375.888Z" fill="#F4F4F4"/>
<path d="M425.546 341.024L442.978 323.592L442.975 341.02L442.975 358.452L425.543 358.452L408.114 358.456L425.546 341.024Z" fill="#22A2F2"/>
<path d="M443.017 393.358L408.153 428.222L443.017 463.086L477.881 428.222L443.017 393.358Z" fill="#001238"/>
<path d="M454.591 404.933L477.881 428.222L454.591 451.511V404.933Z" fill="#22A2F2"/>
<path d="M443.017 393.358L454.682 405.023L454.686 451.417L443.017 463.086L431.397 451.466L431.393 404.982L443.017 393.358Z" fill="#F4F4F4"/>
<path d="M431.393 404.982L431.397 451.466L408.153 428.222L431.393 404.982Z" fill="#001238"/>
<path d="M443.017 463.086L408.153 497.949L443.017 532.813L477.881 497.949L443.017 463.086Z" fill="#001238"/>
<path d="M443.017 463.086L425.585 480.518L460.449 515.381L477.881 497.95L443.017 463.086Z" fill="#22A2F2"/>
<path d="M512.745 323.63L477.881 358.494L512.745 393.358L547.608 358.494L512.745 323.63Z" fill="#001238"/>
<path d="M512.744 323.63L547.608 358.494C546.664 359.439 545.663 360.286 544.61 361.039C536.041 367.224 524.382 367.224 515.813 361.039C515.663 360.931 515.513 360.823 515.366 360.711C514.463 360.031 513.599 359.278 512.779 358.459C511.957 357.636 511.2 356.768 510.52 355.858C510.405 355.715 510.294 355.562 510.189 355.408C504.015 346.842 504.018 335.201 510.189 326.639C510.949 325.586 511.796 324.578 512.744 323.63Z" fill="#22A2F2"/>
<path d="M477.881 358.494C487.507 348.868 503.119 348.868 512.745 358.494C522.37 368.12 522.37 383.732 512.745 393.358L477.881 358.494Z" fill="#F4F4F4"/>
<path d="M512.741 393.354L477.877 428.218L512.741 463.082L547.605 428.218L512.741 393.354Z" fill="#001238"/>
<path d="M530.173 410.786L547.605 428.218L512.741 463.082L495.309 445.65L506.12 434.839C506.131 434.828 506.134 434.818 506.145 434.815L519.334 421.626C519.341 421.612 519.351 421.608 519.358 421.601L530.173 410.786Z" fill="#F4F4F4"/>
<path d="M512.741 393.354L523.099 403.712L523.099 412.47C523.092 415.685 521.924 418.638 519.979 420.918C519.784 421.155 519.571 421.382 519.358 421.601C519.351 421.608 519.341 421.612 519.334 421.626L519.229 421.73C519.215 421.73 519.215 421.744 519.208 421.751C518.985 421.967 518.759 422.18 518.518 422.379C516.322 424.254 513.501 425.408 510.419 425.485C510.308 425.492 510.186 425.495 510.07 425.499L510.077 396.018L512.741 393.354Z" fill="#22A2F2"/>
<path d="M510.022 425.548C510.018 425.663 510.011 425.788 510.011 425.893C509.927 428.982 508.777 431.799 506.901 433.995C506.703 434.236 506.49 434.462 506.274 434.686C506.267 434.692 506.253 434.692 506.249 434.71L506.145 434.815C506.134 434.818 506.131 434.828 506.12 434.839C505.901 435.052 505.674 435.264 505.437 435.459C503.157 437.405 500.207 438.569 496.989 438.58L488.239 438.58L477.877 428.218L480.537 425.558L509.54 425.548L510.022 425.548Z" fill="#22A2F2"/>
<path d="M515.408 430.934L515.405 431.412L515.401 460.422L512.741 463.082L502.376 452.717L502.376 443.966C502.383 440.41 503.802 437.185 506.12 434.839C506.131 434.828 506.134 434.818 506.145 434.815L506.274 434.686C508.55 432.437 511.643 431.032 515.066 430.941C515.174 430.945 515.29 430.934 515.408 430.934Z" fill="#001238"/>
</g>
</g>
</g>
<defs>
<filter id="filter0_i_285_1215" x="129.203" y="219" width="627.62" height="628.71" filterUnits="userSpaceOnUse" color-interpolation-filters="sRGB">
<feFlood flood-opacity="0" result="BackgroundImageFix"/>
<feBlend mode="normal" in="SourceGraphic" in2="BackgroundImageFix" result="shape"/>
<feColorMatrix in="SourceAlpha" type="matrix" values="0 0 0 0 0 0 0 0 0 0 0 0 0 0 0 0 0 0 127 0" result="hardAlpha"/>
<feOffset dy="1.09046"/>
<feGaussianBlur stdDeviation="7.9058"/>
<feComposite in2="hardAlpha" operator="arithmetic" k2="-1" k3="1"/>
<feColorMatrix type="matrix" values="0 0 0 0 0 0 0 0 0 0 0 0 0 0 0 0 0 0 1 0"/>
<feBlend mode="normal" in2="shape" result="effect1_innerShadow_285_1215"/>
</filter>
<linearGradient id="paint0_linear_285_1215" x1="88.1147" y1="82.6953" x2="306.834" y2="304.862" gradientUnits="userSpaceOnUse">
<stop offset="0.359375" stop-color="#001238"/>
<stop offset="1" stop-color="#22A2F2"/>
</linearGradient>
<linearGradient id="paint1_linear_285_1215" x1="-106.091" y1="341.997" x2="371.552" y2="221.816" gradientUnits="userSpaceOnUse">
<stop offset="0.359375" stop-color="#001238"/>
<stop offset="1" stop-color="#22A2F2"/>
</linearGradient>
<clipPath id="clip0_285_1215">
<rect width="500" height="500" rx="20" fill="white"/>
</clipPath>
<clipPath id="clip1_285_1215">
<rect width="295.83" height="295.929" fill="white" transform="translate(129.203 637.367) rotate(-45)"/>
</clipPath>
<clipPath id="clip2_285_1215">
<rect width="295.83" height="295.929" fill="white" transform="translate(338.387 428.183) rotate(-45)"/>
</clipPath>
</defs>
</svg>
