<svg width="16" height="18" viewBox="0 0 16 18" fill="none" xmlns="http://www.w3.org/2000/svg">
<path d="M10.2365 15.8C10.4453 15.8 10.6456 15.7104 10.7933 15.551C10.941 15.3916 11.0239 15.1754 11.0239 14.95V2.2H4.72454C4.5157 2.2 4.31542 2.28955 4.16775 2.44896C4.02008 2.60837 3.93712 2.82457 3.93712 3.05V12.4H2.36227V3.05C2.36227 2.3737 2.61115 1.7251 3.05416 1.24688C3.49717 0.76866 4.09803 0.5 4.72454 0.5H13.3862C14.0127 0.5 14.6136 0.76866 15.0566 1.24688C15.4996 1.7251 15.7485 2.3737 15.7485 3.05V3.9H14.1736V3.05C14.1736 2.82457 14.0907 2.60837 13.943 2.44896C13.7953 2.28955 13.595 2.2 13.3862 2.2C13.1774 2.2 12.9771 2.28955 12.8294 2.44896C12.6817 2.60837 12.5988 2.82457 12.5988 3.05V14.95C12.5988 15.6263 12.3499 16.2749 11.9069 16.7531C11.4639 17.2313 10.863 17.5 10.2365 17.5H2.36227C1.73576 17.5 1.1349 17.2313 0.691893 16.7531C0.248881 16.2749 0 15.6263 0 14.95V14.1H8.66166C8.66166 14.5509 8.82758 14.9833 9.12292 15.3021C9.41826 15.6209 9.81883 15.8 10.2365 15.8Z" fill="#AAAAAA"/>
</svg>
