<svg width="33" height="31" viewBox="0 0 33 31" fill="none" xmlns="http://www.w3.org/2000/svg">
<path fill-rule="evenodd" clip-rule="evenodd" d="M14.4737 0.697313C15.053 0.245372 15.7659 0 16.4998 0C17.2337 0 17.9467 0.245372 18.526 0.697313L32.3593 11.4866C33.6017 12.458 32.9154 14.452 31.3446 14.452H29.6996V27.6904C29.6996 28.5682 29.3519 29.41 28.733 30.0306C28.1142 30.6513 27.2748 31 26.3996 31H6.60004C5.72484 31 4.88549 30.6513 4.26663 30.0306C3.64777 29.41 3.3001 28.5682 3.3001 27.6904V14.452H1.65509C0.0826695 14.452 -0.600417 12.4563 0.640358 11.4883L14.4737 0.697313ZM5.9813 11.5147C6.35914 11.8209 6.60004 12.2892 6.60004 12.8138V27.6904H26.3996V12.8138C26.3996 12.2892 26.6405 11.8209 27.0184 11.5147L16.4998 3.31024L5.9813 11.5147Z" fill="white"/>
</svg>
