<svg width="13" height="18" viewBox="0 0 13 18" fill="none" xmlns="http://www.w3.org/2000/svg">
<path d="M0.0484619 2.62496C0.0484619 1.45198 1.00045 0.5 2.17343 0.5H10.0662C11.2391 0.5 12.1911 1.45198 12.1911 2.62496V16.589C12.1912 16.7617 12.1421 16.9309 12.0497 17.0767C11.9573 17.2226 11.8252 17.3392 11.6691 17.4129C11.5129 17.4866 11.339 17.5144 11.1676 17.493C10.9962 17.4716 10.8345 17.4019 10.7012 17.2921L6.11979 13.5194L1.53837 17.2921C1.40495 17.4014 1.24326 17.4707 1.07207 17.4918C0.900876 17.5129 0.727203 17.485 0.571209 17.4114C0.415214 17.3378 0.283296 17.2215 0.190767 17.0759C0.0982383 16.9303 0.0488939 16.7615 0.0484619 16.589V2.62496ZM2.17343 2.3214C2.09292 2.3214 2.0157 2.35338 1.95877 2.41031C1.90184 2.46724 1.86986 2.54445 1.86986 2.62496V14.6583L5.54058 11.636C5.70368 11.5016 5.90844 11.4281 6.11979 11.4281C6.33113 11.4281 6.5359 11.5016 6.69899 11.636L10.3697 14.6595V2.62496C10.3697 2.54445 10.3377 2.46724 10.2808 2.41031C10.2239 2.35338 10.1467 2.3214 10.0662 2.3214H2.17343Z" fill="#AAAAAA"/>
</svg>
