<svg width="18" height="14" viewBox="0 0 18 14" fill="none" xmlns="http://www.w3.org/2000/svg">
<path d="M4.5 10.4875C5.14091 10.4875 5.76491 10.5592 6.372 10.7027C6.97909 10.8461 7.58236 11.0608 8.18182 11.3466V3.28749C7.62272 2.96022 7.02954 2.71477 6.40227 2.55113C5.775 2.38749 5.14091 2.30567 4.5 2.30567C4.00909 2.30567 3.52145 2.3534 3.03709 2.44886C2.55273 2.54431 2.08582 2.68749 1.63636 2.8784V10.9784C2.11364 10.8148 2.58764 10.692 3.05836 10.6102C3.52909 10.5284 4.00963 10.4875 4.5 10.4875ZM9.81818 11.3466C10.4182 11.0602 11.0215 10.8453 11.628 10.7019C12.2345 10.5584 12.8585 10.4869 13.5 10.4875C13.9909 10.4875 14.4717 10.5284 14.9424 10.6102C15.4132 10.692 15.8869 10.8148 16.3636 10.9784V2.8784C15.9136 2.68749 15.4464 2.54431 14.9621 2.44886C14.4777 2.3534 13.9904 2.30567 13.5 2.30567C12.8591 2.30567 12.225 2.38749 11.5977 2.55113C10.9705 2.71477 10.3773 2.96022 9.81818 3.28749V11.3466ZM9 13.3307C8.80909 13.3307 8.62827 13.3067 8.45754 13.2587C8.28681 13.2107 8.12672 13.146 7.97727 13.0648C7.44545 12.7511 6.88636 12.516 6.3 12.3595C5.71363 12.2029 5.11363 12.1244 4.5 12.1239C3.92727 12.1239 3.36463 12.1989 2.81209 12.3489C2.25954 12.4989 1.73127 12.7102 1.22727 12.9829C0.940909 13.1329 0.664909 13.1261 0.399273 12.9625C0.133636 12.7989 0.000545454 12.5602 0 12.2466V2.38749C0 2.23749 0.0376364 2.09431 0.112909 1.95795C0.188182 1.82158 0.300545 1.71931 0.45 1.65113C1.07727 1.32386 1.73182 1.0784 2.41364 0.914766C3.09545 0.75113 3.79091 0.669312 4.5 0.669312C5.29091 0.669312 6.06491 0.771584 6.822 0.97613C7.57909 1.18068 8.30509 1.48749 9 1.89658C9.69545 1.48749 10.4217 1.18068 11.1788 0.97613C11.9359 0.771584 12.7096 0.669312 13.5 0.669312C14.2091 0.669312 14.9045 0.75113 15.5864 0.914766C16.2682 1.0784 16.9227 1.32386 17.55 1.65113C17.7 1.71931 17.8126 1.82158 17.8879 1.95795C17.9632 2.09431 18.0005 2.23749 18 2.38749V12.2466C18 12.5602 17.8672 12.7989 17.6015 12.9625C17.3359 13.1261 17.0596 13.1329 16.7727 12.9829C16.2682 12.7102 15.7399 12.4989 15.1879 12.3489C14.6359 12.1989 14.0733 12.1239 13.5 12.1239C12.8864 12.1239 12.2864 12.2024 11.7 12.3595C11.1136 12.5166 10.5545 12.7517 10.0227 13.0648C9.87272 13.1466 9.71236 13.2115 9.54163 13.2595C9.3709 13.3075 9.19036 13.3312 9 13.3307ZM10.6364 4.57613C10.6364 4.4534 10.6808 4.32713 10.7697 4.19731C10.8586 4.06749 10.9571 3.9824 11.0651 3.94204C11.4605 3.80567 11.856 3.7034 12.2514 3.63522C12.6469 3.56704 13.0631 3.53295 13.5 3.53295C13.7727 3.53295 14.0422 3.55013 14.3084 3.58449C14.5745 3.61886 14.8369 3.66304 15.0954 3.71704C15.2182 3.74431 15.324 3.81249 15.4129 3.92158C15.5018 4.03067 15.546 4.1534 15.5454 4.28977C15.5454 4.52158 15.4704 4.69204 15.3204 4.80113C15.1704 4.91022 14.9795 4.93749 14.7477 4.88295C14.5568 4.84204 14.3558 4.81122 14.1447 4.79049C13.9336 4.76976 13.7187 4.75967 13.5 4.76022C13.1454 4.76022 12.7977 4.79431 12.4568 4.86249C12.1159 4.93067 11.7886 5.01931 11.475 5.1284C11.2295 5.22386 11.0285 5.21704 10.872 5.10795C10.7155 4.99886 10.6369 4.82158 10.6364 4.57613ZM10.6364 9.07613C10.6364 8.9534 10.6808 8.82713 10.7697 8.69731C10.8586 8.56749 10.9574 8.4824 11.0659 8.44204C11.4614 8.30567 11.8568 8.2034 12.2523 8.13522C12.6477 8.06704 13.0636 8.03295 13.5 8.03295C13.7727 8.03295 14.0422 8.05013 14.3084 8.08449C14.5745 8.11885 14.8369 8.16304 15.0954 8.21704C15.2182 8.24431 15.324 8.31249 15.4129 8.42158C15.5018 8.53067 15.546 8.6534 15.5454 8.78976C15.5454 9.02158 15.4704 9.19204 15.3204 9.30113C15.1704 9.41022 14.9795 9.43749 14.7477 9.38295C14.5568 9.34204 14.3558 9.31122 14.1447 9.29049C13.9336 9.26976 13.7187 9.25967 13.5 9.26022C13.1454 9.26022 12.7977 9.29104 12.4568 9.35267C12.1159 9.41431 11.7886 9.4994 11.475 9.60795C11.2295 9.7034 11.0283 9.69985 10.8712 9.59731C10.7141 9.49476 10.6358 9.32131 10.6364 9.07695V9.07613ZM10.6364 6.82613C10.6364 6.7034 10.6808 6.57713 10.7697 6.44731C10.8586 6.31749 10.9574 6.2324 11.0659 6.19204C11.4614 6.05567 11.8568 5.9534 12.2523 5.88522C12.6477 5.81704 13.0636 5.78295 13.5 5.78295C13.7727 5.78295 14.0422 5.80013 14.3084 5.83449C14.5745 5.86885 14.8369 5.91304 15.0954 5.96704C15.2182 5.99431 15.324 6.06249 15.4129 6.17158C15.5018 6.28067 15.546 6.4034 15.5454 6.53976C15.5454 6.77158 15.4704 6.94204 15.3204 7.05113C15.1704 7.16022 14.9795 7.18749 14.7477 7.13295C14.5568 7.09204 14.3558 7.06122 14.1447 7.04049C13.9336 7.01976 13.7187 7.00967 13.5 7.01022C13.1454 7.01022 12.7977 7.04431 12.4568 7.11249C12.1159 7.18067 11.7886 7.26931 11.475 7.3784C11.2295 7.47386 11.0285 7.46704 10.872 7.35795C10.7155 7.24886 10.6369 7.07158 10.6364 6.82613Z" fill="#FF420F"/>
</svg>
