<svg width="35" height="35" viewBox="0 0 35 35" fill="none" xmlns="http://www.w3.org/2000/svg">
<path fill-rule="evenodd" clip-rule="evenodd" d="M17.5 3.5C15.0513 3.49955 12.6454 4.14135 10.5223 5.36134C8.39915 6.58134 6.63315 8.33685 5.40054 10.4527C4.16793 12.5685 3.51181 14.9706 3.49768 17.4192C3.48355 19.8678 4.1119 22.2773 5.32001 24.4072C6.13658 23.346 7.18626 22.4867 8.38791 21.8959C9.58956 21.3051 10.911 20.9986 12.25 21H22.75C24.089 20.9986 25.4104 21.3051 26.6121 21.8959C27.8137 22.4867 28.8634 23.346 29.68 24.4072C30.8881 22.2773 31.5164 19.8678 31.5023 17.4192C31.4882 14.9706 30.8321 12.5685 29.5995 10.4527C28.3668 8.33685 26.6008 6.58134 24.4777 5.36134C22.3546 4.14135 19.9487 3.49955 17.5 3.5ZM31.4002 28.133C33.74 25.0827 35.0056 21.3443 35 17.5C35 7.83474 27.1652 0 17.5 0C7.83476 0 1.96932e-05 7.83474 1.96932e-05 17.5C-0.00575782 21.3443 1.25985 25.0827 3.59977 28.133L3.59102 28.1645L4.21227 28.8872C5.85356 30.8061 7.89143 32.3463 10.1854 33.4016C12.4794 34.4569 14.9749 35.0022 17.5 35C21.0478 35.0065 24.5129 33.9288 27.4312 31.9112C28.6754 31.0516 29.8035 30.0353 30.7877 28.8872L31.409 28.1645L31.4002 28.133ZM17.5 6.99999C16.1076 6.99999 14.7723 7.55312 13.7877 8.53768C12.8031 9.52225 12.25 10.8576 12.25 12.25C12.25 13.6424 12.8031 14.9777 13.7877 15.9623C14.7723 16.9469 16.1076 17.5 17.5 17.5C18.8924 17.5 20.2277 16.9469 21.2123 15.9623C22.1969 14.9777 22.75 13.6424 22.75 12.25C22.75 10.8576 22.1969 9.52225 21.2123 8.53768C20.2277 7.55312 18.8924 6.99999 17.5 6.99999Z" fill="#693F00"/>
</svg>
